<svg xmlns="http://www.w3.org/2000/svg" xmlns:xlink="http://www.w3.org/1999/xlink" width="500" zoomAndPan="magnify" viewBox="0 0 375 374.999991" height="500" preserveAspectRatio="xMidYMid meet" version="1.0"><path fill="#ffd38a" d="M 362.234375 361.136719 C 366.199219 347.039062 370.910156 325.921875 364.089844 324.140625 C 353.78125 321.476562 346.136719 332.550781 346.136719 332.550781 L 331.066406 232.699219 L 322.292969 174.460938 C 322.292969 174.449219 322.292969 174.421875 322.277344 174.398438 C 321.910156 172.371094 319.210938 171.90625 318.21875 173.722656 L 307.96875 192.3125 C 305.722656 192.300781 303.675781 192.460938 301.785156 192.753906 C 301.675781 192.105469 301.0625 191.664062 300.398438 191.75 C 299.332031 191.90625 298.347656 192.128906 297.390625 192.375 L 296.003906 190.949219 L 296.003906 77.53125 C 296.003906 73.945312 293.097656 71.046875 289.527344 71.046875 L 188.027344 71.046875 C 188.308594 69.117188 192.457031 54.53125 194.261719 48.195312 C 194.8125 46.265625 194.851562 44.242188 194.371094 42.289062 L 192.714844 35.511719 L 203 36.433594 C 203.035156 36.433594 203.070312 36.433594 203.109375 36.433594 C 203.734375 36.433594 204.273438 35.953125 204.335938 35.3125 C 204.398438 34.640625 203.894531 34.039062 203.21875 33.976562 L 192.101562 32.980469 L 191.09375 28.855469 L 204.839844 20.703125 C 205.429688 20.359375 205.613281 19.597656 205.269531 19.019531 C 204.925781 18.441406 204.164062 18.246094 203.585938 18.589844 L 190.492188 26.363281 L 184.027344 0 L 178.125 12.5 L 160.425781 12.5 L 154.867188 0 L 145.125 25.796875 L 133.980469 19.203125 C 133.394531 18.859375 132.644531 19.058594 132.300781 19.632812 C 131.957031 20.222656 132.152344 20.972656 132.730469 21.316406 L 144.242188 28.117188 L 144.007812 28.746094 L 92.625 22.703125 C 75.273438 20.652344 61.542969 37.132812 66.683594 53.84375 L 68.964844 61.261719 C 55.015625 64.84375 44.667969 77.542969 44.667969 92.621094 L 44.667969 100.566406 C 44.667969 112.609375 49.796875 124.152344 58.730469 132.21875 C 63.382812 136.417969 66.023438 142.191406 66.15625 148.464844 C 66.292969 154.738281 63.910156 160.609375 59.457031 165.015625 L 41.734375 182.476562 C 39.808594 184.382812 39.785156 187.488281 41.6875 189.429688 C 42.644531 190.398438 43.90625 190.890625 45.183594 190.890625 C 46.421875 190.890625 47.675781 190.421875 48.632812 189.476562 L 66.339844 172.003906 C 66.425781 171.929688 66.5 171.84375 66.574219 171.757812 L 66.574219 212.191406 C 65.898438 212.191406 65.347656 212.746094 65.347656 213.421875 L 65.347656 342.386719 C 65.347656 343.0625 65.898438 343.613281 66.574219 343.613281 L 66.574219 367.253906 C 66.574219 370.835938 69.480469 373.734375 73.054688 373.734375 L 258.808594 373.734375 C 258.808594 373.773438 258.808594 373.820312 258.820312 373.859375 C 258.882812 374.484375 259.410156 374.964844 260.035156 374.964844 L 281.414062 374.964844 C 281.917969 374.964844 282.359375 374.65625 282.554688 374.203125 L 282.738281 373.734375 L 289.5 373.734375 C 289.5 373.734375 289.511719 373.734375 289.511719 373.734375 L 319.960938 373.734375 L 320.058594 374.066406 C 320.203125 374.59375 320.683594 374.964844 321.234375 374.964844 L 344.28125 374.964844 C 344.945312 374.964844 345.484375 374.433594 345.507812 373.785156 C 345.507812 373.785156 345.507812 373.761719 345.507812 373.734375 L 371.351562 373.734375 C 371.351562 373.722656 374.554688 363.199219 362.234375 361.136719 Z M 65.308594 124.925781 C 58.4375 118.714844 54.484375 109.835938 54.484375 100.566406 L 54.484375 92.621094 C 54.484375 81.960938 61.921875 73.023438 71.875 70.691406 L 72.023438 71.15625 C 68.941406 71.660156 66.585938 74.3125 66.585938 77.542969 L 66.585938 126.152344 C 66.167969 125.722656 65.738281 125.320312 65.308594 124.925781 Z M 65.308594 124.925781 " fill-opacity="1" fill-rule="nonzero"/><path fill="#da60c5" d="M 280.738281 242.828125 L 281.425781 242.953125 L 279.976562 249.105469 L 274.617188 271.96875 C 273.953125 271.820312 273.289062 272.226562 273.144531 272.886719 L 271.671875 279.175781 L 271.671875 241.246094 Z M 169.089844 31.742188 C 169.089844 31.742188 172.097656 30.710938 172.097656 28.792969 C 172.097656 26.867188 169.914062 27.210938 169.089844 28.449219 C 168.269531 27.210938 166.085938 26.867188 166.085938 28.792969 C 166.085938 30.710938 169.089844 31.742188 169.089844 31.742188 Z M 289.511719 71.046875 L 188.015625 71.046875 C 188.015625 71.046875 188.015625 71.058594 188.015625 71.058594 L 155.335938 71.09375 C 155.296875 71.746094 154.78125 72.261719 154.121094 72.261719 L 144.242188 72.261719 C 143.675781 72.261719 143.085938 71.882812 142.878906 71.109375 L 114.324219 71.144531 C 114.238281 71.367188 114.175781 71.511719 114.164062 71.550781 C 113.96875 71.980469 113.523438 72.261719 113.046875 72.261719 L 87.4375 72.261719 C 86.808594 72.261719 86.320312 71.796875 86.246094 71.195312 L 72.035156 71.21875 L 72.011719 71.144531 C 68.929688 71.648438 66.574219 74.300781 66.574219 77.53125 L 66.574219 126.140625 C 72.464844 132.046875 75.777344 139.832031 75.960938 148.242188 C 76.15625 157.132812 72.820312 165.472656 66.574219 171.757812 L 66.574219 212.191406 C 67.25 212.191406 67.800781 212.746094 67.800781 213.421875 L 67.800781 342.386719 C 67.800781 343.0625 67.25 343.613281 66.574219 343.613281 L 66.574219 367.25 C 66.574219 370.835938 69.480469 373.734375 73.054688 373.734375 L 258.808594 373.734375 L 229.394531 373.734375 C 229.394531 373.734375 225.984375 362.523438 239.765625 360.976562 C 239.566406 360.070312 239.371094 359.109375 239.175781 358.152344 L 90.910156 358.152344 L 90.910156 284.195312 C 90.234375 284.195312 89.679688 283.644531 89.679688 282.96875 L 89.679688 247.015625 C 89.679688 246.339844 90.234375 245.789062 90.910156 245.789062 L 90.910156 223.636719 C 90.234375 223.636719 89.679688 223.085938 89.679688 222.410156 L 89.679688 154.015625 C 89.679688 153.339844 90.234375 152.789062 90.910156 152.789062 L 90.910156 99.65625 L 123.832031 99.65625 L 123.832031 90.054688 C 123.832031 88.039062 125.464844 86.40625 127.476562 86.40625 L 235.089844 86.40625 C 237.101562 86.40625 238.734375 88.039062 238.734375 90.054688 L 238.734375 99.65625 L 271.65625 99.65625 L 271.65625 212.769531 L 275.363281 211.75 L 280.261719 210.398438 C 280.199219 210.167969 280.175781 209.910156 280.273438 209.664062 C 281.722656 205.710938 283.757812 201.363281 287.316406 197.898438 L 285.746094 184.085938 C 285.597656 182.761719 287.207031 182 288.140625 182.945312 L 295.992188 190.949219 L 295.992188 77.53125 C 295.992188 73.945312 293.085938 71.046875 289.511719 71.046875 Z M 282.75 373.722656 L 289.511719 373.722656 C 289.511719 373.722656 289.527344 373.722656 289.527344 373.722656 Z M 282.75 373.722656 " fill-opacity="1" fill-rule="nonzero"/><path fill="#7ed6d9" d="M 362.234375 361.136719 C 366.199219 347.039062 370.910156 325.921875 364.089844 324.140625 C 353.78125 321.476562 346.136719 332.550781 346.136719 332.550781 L 331.066406 232.699219 C 326.453125 237.867188 320.144531 241.933594 311.578125 242.609375 C 285.476562 244.660156 275.351562 211.761719 275.351562 211.761719 L 271.644531 212.78125 L 239.347656 221.660156 L 240.539062 224.433594 C 240.917969 225.320312 240.488281 226.351562 239.59375 226.707031 L 236.121094 228.058594 C 236.84375 232.269531 240.144531 235.683594 244.464844 236.445312 L 271.644531 241.246094 L 280.726562 242.855469 L 281.414062 242.976562 L 290.3125 244.609375 L 279.976562 249.128906 L 274.617188 271.992188 C 275.277344 272.152344 275.683594 272.8125 275.523438 273.464844 L 262.566406 328.660156 C 262.429688 329.222656 261.925781 329.605469 261.375 329.605469 C 261.277344 329.605469 261.191406 329.59375 261.09375 329.566406 C 260.429688 329.40625 260.023438 328.746094 260.183594 328.09375 L 260.578125 326.425781 C 258.75 322.679688 253.605469 315.335938 243.054688 321.488281 C 234.707031 326.363281 236.5 344.585938 239.199219 358.152344 C 239.394531 359.125 239.59375 360.070312 239.789062 360.976562 C 226.019531 362.523438 229.417969 373.734375 229.417969 373.734375 L 258.835938 373.734375 C 258.417969 369.425781 259.375 366.21875 261.667969 364.195312 C 264.527344 361.691406 268.628906 361.800781 270.6875 362.070312 L 282.457031 297.640625 C 282.578125 296.980469 283.21875 296.523438 283.878906 296.660156 C 284.542969 296.78125 284.984375 297.421875 284.863281 298.085938 L 272.871094 363.714844 C 272.8125 364.046875 272.617188 364.34375 272.332031 364.527344 C 272.050781 364.710938 271.707031 364.773438 271.375 364.699219 C 271.328125 364.6875 266.171875 363.507812 263.265625 366.074219 C 261.753906 367.398438 261.054688 369.574219 261.179688 372.53125 L 280.59375 372.53125 L 292.828125 342.632812 C 293.085938 342.007812 293.796875 341.699219 294.421875 341.957031 C 295.046875 342.214844 295.355469 342.925781 295.097656 343.554688 L 282.738281 373.746094 L 319.960938 373.746094 L 307.980469 330.96875 C 307.796875 330.316406 308.179688 329.640625 308.828125 329.457031 C 309.480469 329.273438 310.15625 329.652344 310.339844 330.304688 L 322.15625 372.519531 L 342.96875 372.519531 C 342.625 370.039062 340.917969 364.402344 332.488281 362.585938 C 331.949219 362.476562 331.554688 362.007812 331.519531 361.457031 L 328.046875 297.9375 C 328.007812 297.261719 328.523438 296.683594 329.199219 296.648438 C 329.863281 296.574219 330.453125 297.125 330.488281 297.800781 L 333.914062 360.398438 C 345.335938 363.347656 345.496094 373 345.484375 373.734375 L 371.328125 373.734375 C 371.351562 373.722656 374.554688 363.199219 362.234375 361.136719 Z M 270.542969 238.078125 C 269.855469 238.078125 269.128906 238.027344 268.371094 237.917969 C 267.695312 237.820312 267.226562 237.191406 267.328125 236.53125 C 267.425781 235.867188 268.050781 235.375 268.714844 235.484375 C 273.660156 236.210938 277.15625 233.804688 277.671875 231.078125 C 277.792969 230.414062 278.433594 229.972656 279.105469 230.097656 C 279.769531 230.21875 280.210938 230.871094 280.089844 231.53125 C 279.449219 234.921875 275.953125 238.078125 270.542969 238.078125 Z M 134.765625 177.800781 C 134.765625 178.476562 134.214844 179.027344 133.539062 179.027344 L 133.539062 190.472656 C 134.214844 190.472656 134.765625 191.023438 134.765625 191.699219 L 134.765625 207.453125 L 181.878906 234.050781 C 182.085938 234.160156 182.222656 234.332031 182.320312 234.527344 L 203.683594 222.46875 C 203.355469 221.882812 203.5625 221.132812 204.152344 220.800781 L 227.773438 207.464844 L 227.773438 141.835938 L 134.765625 141.835938 Z M 153.324219 174.472656 C 153.324219 173.796875 153.875 173.242188 154.550781 173.242188 L 172.234375 173.242188 L 172.234375 155.550781 C 172.234375 154.875 172.785156 154.320312 173.460938 154.320312 L 189.105469 154.320312 C 189.78125 154.320312 190.332031 154.875 190.332031 155.550781 C 190.332031 156.226562 189.78125 156.777344 189.105469 156.777344 L 189.105469 163.960938 C 189.78125 163.960938 190.332031 164.515625 190.332031 165.1875 L 190.332031 173.242188 L 208.015625 173.242188 C 208.691406 173.242188 209.246094 173.796875 209.246094 174.472656 L 209.246094 190.128906 C 209.246094 190.804688 208.691406 191.355469 208.015625 191.355469 L 190.332031 191.355469 L 190.332031 194.917969 C 190.332031 195.59375 189.78125 196.144531 189.105469 196.144531 L 189.105469 202.886719 C 189.78125 202.886719 190.332031 203.4375 190.332031 204.113281 L 190.332031 209.050781 C 190.332031 209.726562 189.78125 210.277344 189.105469 210.277344 L 173.460938 210.277344 C 172.785156 210.277344 172.234375 209.726562 172.234375 209.050781 L 172.234375 191.355469 L 171.828125 191.355469 C 171.152344 191.355469 170.601562 190.804688 170.601562 190.128906 L 162.242188 190.128906 C 162.242188 190.804688 161.691406 191.355469 161.015625 191.355469 L 154.550781 191.355469 C 153.875 191.355469 153.324219 190.804688 153.324219 190.128906 Z M 153.324219 174.472656 " fill-opacity="1" fill-rule="nonzero"/><path fill="#ffd38a" d="M 173.019531 102.714844 C 173.019531 102.039062 173.570312 101.484375 174.246094 101.484375 L 179.007812 101.484375 C 179.683594 101.484375 180.234375 102.039062 180.234375 102.714844 C 180.234375 103.390625 179.683594 103.941406 179.007812 103.941406 L 174.246094 103.941406 C 173.558594 103.941406 173.019531 103.390625 173.019531 102.714844 Z M 134.265625 103.941406 L 165.359375 103.941406 C 166.035156 103.941406 166.589844 103.390625 166.589844 102.714844 C 166.589844 102.039062 166.035156 101.484375 165.359375 101.484375 L 134.265625 101.484375 C 132.621094 101.484375 131.28125 100.148438 131.28125 98.503906 L 131.28125 93.921875 C 131.28125 93.246094 130.730469 92.695312 130.054688 92.695312 C 129.378906 92.695312 128.828125 93.246094 128.828125 93.921875 L 128.828125 98.503906 C 128.828125 101.496094 131.269531 103.941406 134.265625 103.941406 Z M 187.878906 174.472656 L 187.878906 165.1875 C 187.878906 164.515625 188.429688 163.960938 189.105469 163.960938 L 189.105469 156.777344 L 174.699219 156.777344 L 174.699219 174.472656 C 174.699219 175.148438 174.148438 175.699219 173.472656 175.699219 L 155.777344 175.699219 L 155.777344 188.898438 L 161.015625 188.898438 C 161.691406 188.898438 162.242188 189.453125 162.242188 190.128906 L 170.601562 190.128906 C 170.601562 189.453125 171.152344 188.898438 171.828125 188.898438 L 173.460938 188.898438 C 174.136719 188.898438 174.6875 189.453125 174.6875 190.128906 L 174.6875 207.820312 L 187.878906 207.820312 L 187.878906 204.113281 C 187.878906 203.4375 188.429688 202.886719 189.105469 202.886719 L 189.105469 196.144531 C 188.429688 196.144531 187.878906 195.59375 187.878906 194.917969 L 187.878906 190.128906 C 187.878906 189.453125 188.429688 188.898438 189.105469 188.898438 L 206.789062 188.898438 L 206.789062 175.699219 L 189.105469 175.699219 C 188.429688 175.699219 187.878906 175.160156 187.878906 174.472656 Z M 303.34375 203.203125 C 296.960938 203.046875 295.5625 212.339844 295.503906 212.734375 C 295.402344 213.410156 295.882812 214.023438 296.546875 214.121094 C 296.605469 214.132812 296.65625 214.132812 296.71875 214.132812 C 297.316406 214.132812 297.847656 213.691406 297.933594 213.078125 C 297.945312 213.003906 299.023438 205.660156 303.183594 205.660156 C 303.207031 205.660156 303.246094 205.660156 303.269531 205.660156 C 307.46875 205.769531 307.921875 212.894531 307.933594 212.964844 C 307.96875 213.640625 308.558594 214.15625 309.222656 214.121094 C 309.898438 214.085938 310.414062 213.507812 310.375 212.832031 C 310.363281 212.449219 309.796875 203.375 303.34375 203.203125 Z M 238.734375 99.65625 L 271.65625 99.65625 L 271.65625 212.769531 L 239.359375 221.648438 L 235.628906 221.648438 C 234.21875 221.648438 233.320312 223.15625 233.984375 224.398438 L 235.972656 228.105469 L 236.121094 228.046875 C 236.84375 232.257812 240.144531 235.671875 244.464844 236.433594 L 271.644531 241.234375 L 271.644531 279.164062 L 260.550781 326.410156 C 258.722656 322.667969 253.582031 315.324219 243.027344 321.476562 C 234.683594 326.351562 236.476562 344.574219 239.175781 358.140625 L 90.910156 358.140625 L 90.910156 284.183594 C 91.582031 284.183594 92.136719 283.632812 92.136719 282.957031 L 92.136719 247.003906 C 92.136719 246.328125 91.582031 245.777344 90.910156 245.777344 L 90.910156 223.625 C 91.582031 223.625 92.136719 223.070312 92.136719 222.398438 L 92.136719 154.003906 C 92.136719 153.328125 91.582031 152.773438 90.910156 152.773438 L 90.910156 99.65625 L 123.832031 99.65625 L 123.832031 104.371094 C 123.832031 106.386719 125.464844 108.019531 127.476562 108.019531 L 235.089844 108.019531 C 237.101562 108.019531 238.734375 106.386719 238.734375 104.371094 Z M 227.921875 283.019531 C 227.921875 282.34375 227.371094 281.789062 226.695312 281.789062 L 135.871094 281.789062 C 135.195312 281.789062 134.644531 282.34375 134.644531 283.019531 C 134.644531 283.695312 135.195312 284.246094 135.871094 284.246094 L 226.695312 284.246094 C 227.371094 284.246094 227.921875 283.695312 227.921875 283.019531 Z M 227.921875 270.9375 C 227.921875 270.261719 227.371094 269.707031 226.695312 269.707031 L 135.871094 269.707031 C 135.195312 269.707031 134.644531 270.261719 134.644531 270.9375 C 134.644531 271.609375 135.195312 272.164062 135.871094 272.164062 L 226.695312 272.164062 C 227.371094 272.164062 227.921875 271.609375 227.921875 270.9375 Z M 153.421875 260.082031 L 209.132812 260.082031 C 209.808594 260.082031 210.359375 259.527344 210.359375 258.851562 C 210.359375 258.179688 209.808594 257.625 209.132812 257.625 L 153.421875 257.625 C 152.746094 257.625 152.191406 258.179688 152.191406 258.851562 C 152.191406 259.527344 152.746094 260.082031 153.421875 260.082031 Z M 230.253906 140.605469 C 230.253906 139.929688 229.703125 139.378906 229.027344 139.378906 L 133.539062 139.378906 C 132.867188 139.378906 132.3125 139.929688 132.3125 140.605469 L 132.3125 177.8125 C 132.3125 178.488281 132.867188 179.039062 133.539062 179.039062 L 133.539062 190.484375 C 132.867188 190.484375 132.3125 191.035156 132.3125 191.710938 L 132.3125 208.191406 C 132.3125 208.632812 132.546875 209.039062 132.9375 209.257812 L 180.675781 236.199219 C 180.871094 236.308594 181.070312 236.359375 181.277344 236.359375 C 181.707031 236.359375 182.125 236.136719 182.34375 235.730469 C 182.566406 235.339844 182.527344 234.898438 182.320312 234.539062 L 203.683594 222.484375 C 203.90625 222.886719 204.324219 223.109375 204.753906 223.109375 C 204.960938 223.109375 205.15625 223.058594 205.355469 222.949219 L 229.601562 209.257812 C 229.984375 209.039062 230.230469 208.632812 230.230469 208.191406 L 230.230469 140.605469 Z M 301.785156 192.78125 C 301.785156 192.769531 301.773438 192.769531 301.773438 192.753906 C 301.664062 192.105469 301.050781 191.664062 300.386719 191.75 C 299.320312 191.90625 298.335938 192.128906 297.378906 192.375 C 293.058594 193.492188 289.808594 195.480469 287.316406 197.898438 C 283.757812 201.363281 281.707031 205.699219 280.273438 209.664062 C 280.1875 209.910156 280.199219 210.167969 280.261719 210.398438 C 280.359375 210.769531 280.617188 211.089844 280.996094 211.234375 C 281.132812 211.285156 281.277344 211.308594 281.414062 211.308594 C 281.917969 211.308594 282.382812 211 282.566406 210.5 C 286.25 200.394531 291.6875 195.503906 300.742188 194.167969 C 301.417969 194.082031 301.882812 193.457031 301.785156 192.78125 Z M 301.785156 192.78125 " fill-opacity="1" fill-rule="nonzero"/><path fill="#fd914c" d="M 185.179688 32.355469 L 191.082031 28.855469 L 192.089844 32.980469 Z M 114.324219 71.15625 C 114.753906 70.027344 115.734375 66.722656 113.867188 64.085938 C 112.433594 62.046875 109.722656 60.976562 105.769531 60.890625 C 107.5 58.621094 109.082031 54.59375 107.277344 48.011719 C 107.09375 47.359375 106.417969 46.980469 105.769531 47.152344 C 105.117188 47.335938 104.738281 48.011719 104.910156 48.660156 C 107.511719 58.09375 102.113281 61.039062 101.890625 61.148438 C 101.363281 61.417969 101.09375 62.019531 101.265625 62.585938 C 101.4375 63.152344 101.976562 63.542969 102.566406 63.46875 C 107.390625 63.015625 110.605469 63.703125 111.867188 65.484375 C 112.875 66.894531 112.507812 68.785156 112.199219 69.804688 L 87.4375 69.804688 C 86.761719 69.804688 86.207031 70.359375 86.207031 71.035156 C 86.207031 71.09375 86.234375 71.132812 86.246094 71.195312 L 72.035156 71.21875 L 72.011719 71.144531 L 71.863281 70.679688 C 61.910156 73.011719 54.472656 81.949219 54.472656 92.609375 L 54.472656 100.550781 C 54.472656 109.824219 58.414062 118.699219 65.296875 124.914062 C 65.738281 125.308594 66.15625 125.710938 66.574219 126.128906 C 72.464844 132.035156 75.777344 139.820312 75.960938 148.230469 C 76.15625 157.121094 72.820312 165.460938 66.574219 171.746094 C 66.5 171.832031 66.414062 171.90625 66.339844 171.992188 L 48.632812 189.476562 C 47.675781 190.421875 46.4375 190.890625 45.183594 190.890625 C 43.921875 190.890625 42.644531 190.398438 41.6875 189.429688 C 39.785156 187.5 39.808594 184.382812 41.734375 182.476562 L 59.445312 165.003906 C 63.910156 160.609375 66.292969 154.726562 66.144531 148.453125 C 66.007812 142.179688 63.371094 136.417969 58.71875 132.207031 C 49.785156 124.140625 44.667969 112.597656 44.667969 100.550781 L 44.667969 92.609375 C 44.667969 77.542969 55.015625 64.84375 68.964844 61.246094 L 66.683594 53.832031 C 61.542969 37.121094 75.273438 20.640625 92.625 22.691406 L 144.007812 28.734375 L 144.242188 28.105469 L 151.691406 32.515625 L 130.914062 35.742188 C 130.238281 35.84375 129.785156 36.480469 129.894531 37.144531 C 129.992188 37.746094 130.507812 38.1875 131.109375 38.1875 C 131.171875 38.1875 131.234375 38.1875 131.308594 38.175781 L 155.46875 34.417969 C 155.984375 34.332031 156.390625 33.953125 156.488281 33.4375 C 156.585938 32.921875 156.351562 32.417969 155.910156 32.144531 L 145.136719 25.773438 L 154.867188 0 L 160.425781 12.5 L 178.136719 12.5 L 184.027344 0 L 190.46875 26.363281 L 180.652344 32.183594 C 180.199219 32.453125 179.964844 32.992188 180.074219 33.507812 C 180.199219 34.023438 180.625 34.417969 181.167969 34.46875 L 192.703125 35.511719 L 194.359375 42.289062 C 194.835938 44.230469 194.800781 46.265625 194.25 48.195312 C 192.433594 54.542969 188.285156 69.117188 188.015625 71.046875 C 188.015625 71.046875 188.015625 71.058594 188.015625 71.058594 L 155.335938 71.09375 C 155.335938 71.070312 155.347656 71.058594 155.347656 71.035156 C 155.347656 70.359375 154.792969 69.804688 154.121094 69.804688 L 145.394531 69.804688 C 145.640625 69.070312 146.179688 67.941406 147.246094 66.75 C 149.210938 64.527344 153.101562 61.835938 160.476562 61.554688 C 175.3125 61.003906 185.914062 57.246094 186.371094 57.085938 C 187.007812 56.851562 187.339844 56.152344 187.105469 55.511719 C 186.875 54.875 186.171875 54.542969 185.535156 54.777344 C 185.472656 54.800781 181.203125 56.3125 174.429688 57.550781 C 171.777344 56.214844 156.695312 49.238281 137.945312 53.363281 C 137.28125 53.511719 136.867188 54.164062 137.011719 54.824219 C 137.160156 55.488281 137.8125 55.90625 138.472656 55.757812 C 152.179688 52.75 164.074219 56.066406 169.890625 58.277344 C 166.992188 58.667969 163.800781 58.976562 160.402344 59.109375 C 146.988281 59.601562 142.757812 67.828125 142.804688 70.617188 C 142.804688 70.8125 142.855469 70.960938 142.902344 71.121094 Z M 177.082031 27.257812 C 177.238281 27.320312 177.398438 27.359375 177.546875 27.359375 C 178.023438 27.359375 178.480469 27.074219 178.675781 26.597656 C 179.117188 25.539062 180.148438 24.054688 180.835938 24.054688 C 181.4375 24.054688 182.210938 25.453125 182.492188 26.449219 C 182.675781 27.101562 183.351562 27.480469 184 27.308594 C 184.652344 27.125 185.03125 26.449219 184.859375 25.796875 C 184.738281 25.367188 183.621094 21.597656 180.847656 21.597656 C 178.183594 21.597656 176.589844 25.234375 176.417969 25.652344 C 176.160156 26.289062 176.453125 27 177.082031 27.257812 Z M 166.085938 28.78125 C 166.085938 30.710938 169.089844 31.730469 169.089844 31.730469 C 169.089844 31.730469 172.097656 30.699219 172.097656 28.78125 C 172.097656 26.855469 169.914062 27.199219 169.089844 28.4375 C 168.269531 27.199219 166.085938 26.855469 166.085938 28.78125 Z M 164.992188 36.160156 C 165.445312 37.058594 166.808594 38.59375 169.089844 38.59375 C 171.792969 38.59375 173.484375 36.46875 173.558594 36.371094 C 173.976562 35.84375 173.878906 35.082031 173.351562 34.652344 C 172.820312 34.234375 172.050781 34.320312 171.632812 34.847656 C 171.621094 34.859375 170.578125 36.136719 169.089844 36.136719 C 167.804688 36.136719 167.25 35.179688 167.175781 35.054688 C 166.871094 34.453125 166.144531 34.222656 165.53125 34.515625 C 164.929688 34.8125 164.6875 35.546875 164.992188 36.160156 Z M 157.789062 24.066406 C 158.390625 24.066406 159.164062 25.464844 159.445312 26.460938 C 159.628906 27.113281 160.304688 27.492188 160.957031 27.320312 C 161.605469 27.136719 161.984375 26.460938 161.8125 25.808594 C 161.691406 25.378906 160.574219 21.609375 157.800781 21.609375 C 155.136719 21.609375 153.542969 25.246094 153.371094 25.664062 C 153.113281 26.289062 153.40625 27.015625 154.035156 27.273438 C 154.195312 27.332031 154.351562 27.371094 154.5 27.371094 C 154.980469 27.371094 155.433594 27.085938 155.628906 26.609375 C 156.070312 25.539062 157.101562 24.066406 157.789062 24.066406 Z M 152.191406 258.851562 C 152.191406 259.527344 152.746094 260.082031 153.421875 260.082031 L 209.132812 260.082031 C 209.808594 260.082031 210.359375 259.527344 210.359375 258.851562 C 210.359375 258.179688 209.808594 257.625 209.132812 257.625 L 153.421875 257.625 C 152.746094 257.625 152.191406 258.179688 152.191406 258.851562 Z M 134.644531 270.9375 C 134.644531 271.609375 135.195312 272.164062 135.871094 272.164062 L 226.695312 272.164062 C 227.371094 272.164062 227.921875 271.609375 227.921875 270.9375 C 227.921875 270.261719 227.371094 269.707031 226.695312 269.707031 L 135.871094 269.707031 C 135.195312 269.707031 134.644531 270.261719 134.644531 270.9375 Z M 226.695312 281.789062 L 135.871094 281.789062 C 135.195312 281.789062 134.644531 282.34375 134.644531 283.019531 C 134.644531 283.695312 135.195312 284.246094 135.871094 284.246094 L 226.695312 284.246094 C 227.371094 284.246094 227.921875 283.695312 227.921875 283.019531 C 227.921875 282.34375 227.371094 281.789062 226.695312 281.789062 Z M 226.695312 281.789062 " fill-opacity="1" fill-rule="nonzero"/><path fill="#0a364e" d="M 238.734375 104.371094 L 238.734375 90.054688 C 238.734375 88.039062 237.101562 86.40625 235.089844 86.40625 L 127.476562 86.40625 C 125.464844 86.40625 123.832031 88.039062 123.832031 90.054688 L 123.832031 104.371094 C 123.832031 106.386719 125.464844 108.019531 127.476562 108.019531 L 235.089844 108.019531 C 237.101562 108.019531 238.734375 106.386719 238.734375 104.371094 Z M 165.375 103.941406 L 134.265625 103.941406 C 131.269531 103.941406 128.828125 101.496094 128.828125 98.503906 L 128.828125 93.921875 C 128.828125 93.246094 129.378906 92.695312 130.054688 92.695312 C 130.730469 92.695312 131.28125 93.246094 131.28125 93.921875 L 131.28125 98.503906 C 131.28125 100.148438 132.621094 101.484375 134.265625 101.484375 L 165.359375 101.484375 C 166.035156 101.484375 166.589844 102.039062 166.589844 102.714844 C 166.589844 103.390625 166.046875 103.941406 165.375 103.941406 Z M 178.996094 103.941406 L 174.234375 103.941406 C 173.558594 103.941406 173.007812 103.390625 173.007812 102.714844 C 173.007812 102.039062 173.558594 101.484375 174.234375 101.484375 L 178.996094 101.484375 C 179.667969 101.484375 180.222656 102.039062 180.222656 102.714844 C 180.222656 103.390625 179.667969 103.941406 178.996094 103.941406 Z M 287.316406 197.898438 L 285.746094 184.085938 C 285.597656 182.761719 287.207031 182 288.140625 182.945312 L 295.992188 190.949219 L 297.378906 192.375 C 293.058594 193.492188 289.808594 195.480469 287.316406 197.898438 Z M 311.589844 242.597656 C 320.144531 241.921875 326.464844 237.855469 331.078125 232.6875 L 322.304688 174.449219 C 322.304688 174.433594 322.304688 174.410156 322.292969 174.386719 C 321.921875 172.359375 319.222656 171.894531 318.230469 173.710938 L 307.980469 192.300781 C 305.738281 192.289062 303.6875 192.449219 301.796875 192.742188 C 301.796875 192.753906 301.808594 192.753906 301.808594 192.769531 C 301.90625 193.441406 301.441406 194.058594 300.777344 194.167969 C 291.722656 195.507812 286.285156 200.394531 282.605469 210.5 C 282.421875 211.003906 281.953125 211.308594 281.449219 211.308594 C 281.316406 211.308594 281.167969 211.285156 281.035156 211.234375 C 280.640625 211.089844 280.394531 210.769531 280.296875 210.398438 L 275.402344 211.75 C 275.363281 211.75 285.488281 244.644531 311.589844 242.597656 Z M 303.34375 203.203125 C 309.796875 203.375 310.363281 212.449219 310.386719 212.832031 C 310.425781 213.507812 309.910156 214.085938 309.234375 214.121094 C 308.558594 214.144531 307.980469 213.640625 307.945312 212.964844 C 307.945312 212.894531 307.480469 205.769531 303.28125 205.660156 C 303.246094 205.660156 303.222656 205.660156 303.195312 205.660156 C 299.035156 205.660156 297.957031 213.003906 297.945312 213.078125 C 297.859375 213.691406 297.332031 214.132812 296.730469 214.132812 C 296.667969 214.132812 296.617188 214.132812 296.558594 214.121094 C 295.882812 214.023438 295.417969 213.410156 295.515625 212.734375 C 295.5625 212.339844 296.960938 203.046875 303.34375 203.203125 Z M 240.550781 224.421875 C 240.929688 225.308594 240.5 226.339844 239.605469 226.695312 L 236.132812 228.046875 L 235.984375 228.105469 L 233.996094 224.398438 C 233.332031 223.15625 234.230469 221.648438 235.640625 221.648438 L 239.371094 221.648438 Z M 267.339844 236.53125 C 267.4375 235.855469 268.0625 235.375 268.726562 235.484375 C 273.671875 236.210938 277.167969 233.804688 277.683594 231.078125 C 277.804688 230.414062 278.445312 229.972656 279.121094 230.097656 C 279.78125 230.21875 280.222656 230.871094 280.101562 231.53125 C 279.464844 234.921875 275.964844 238.078125 270.554688 238.078125 C 269.867188 238.078125 269.140625 238.027344 268.382812 237.917969 C 267.707031 237.820312 267.242188 237.207031 267.339844 236.53125 Z M 281.425781 242.953125 L 290.324219 244.585938 L 279.992188 249.105469 Z M 295.109375 343.527344 L 282.75 373.722656 L 282.566406 374.191406 C 282.382812 374.65625 281.929688 374.949219 281.425781 374.949219 L 260.050781 374.949219 C 259.421875 374.949219 258.894531 374.472656 258.835938 373.847656 C 258.835938 373.796875 258.835938 373.761719 258.820312 373.722656 C 258.40625 369.414062 259.363281 366.207031 261.65625 364.183594 C 264.515625 361.675781 268.613281 361.789062 270.675781 362.058594 L 282.445312 297.628906 C 282.566406 296.96875 283.207031 296.511719 283.867188 296.648438 C 284.53125 296.769531 284.972656 297.410156 284.851562 298.070312 L 272.859375 363.703125 C 272.800781 364.035156 272.601562 364.328125 272.320312 364.515625 C 272.039062 364.699219 271.695312 364.757812 271.363281 364.6875 C 271.316406 364.671875 266.160156 363.496094 263.253906 366.0625 C 261.742188 367.386719 261.042969 369.558594 261.164062 372.519531 L 280.578125 372.519531 L 292.816406 342.621094 C 293.074219 341.992188 293.785156 341.6875 294.410156 341.945312 C 295.058594 342.191406 295.367188 342.902344 295.109375 343.527344 Z M 345.519531 373.722656 C 345.519531 373.746094 345.519531 373.761719 345.519531 373.773438 C 345.496094 374.433594 344.957031 374.949219 344.292969 374.949219 L 321.25 374.949219 C 320.695312 374.949219 320.21875 374.582031 320.070312 374.054688 L 319.972656 373.722656 L 307.996094 330.941406 C 307.8125 330.292969 308.191406 329.617188 308.839844 329.433594 C 309.492188 329.25 310.167969 329.628906 310.351562 330.28125 L 322.167969 372.496094 L 342.980469 372.496094 C 342.636719 370.015625 340.933594 364.378906 332.5 362.5625 C 331.960938 362.449219 331.570312 361.984375 331.53125 361.433594 L 328.058594 297.914062 C 328.023438 297.238281 328.539062 296.660156 329.210938 296.625 C 329.875 296.550781 330.464844 297.101562 330.5 297.777344 L 333.925781 360.375 C 345.363281 363.335938 345.519531 372.984375 345.519531 373.722656 Z M 260.171875 328.070312 L 260.566406 326.398438 L 271.65625 279.148438 L 273.128906 272.863281 C 273.289062 272.199219 273.941406 271.796875 274.601562 271.941406 C 275.265625 272.101562 275.671875 272.765625 275.511719 273.414062 L 262.550781 328.609375 C 262.417969 329.175781 261.914062 329.554688 261.363281 329.554688 C 261.265625 329.554688 261.179688 329.542969 261.078125 329.519531 C 260.429688 329.382812 260.011719 328.734375 260.171875 328.070312 Z M 113.867188 64.082031 C 115.734375 66.734375 114.753906 70.027344 114.324219 71.15625 C 114.238281 71.378906 114.175781 71.523438 114.164062 71.5625 C 113.96875 71.992188 113.523438 72.273438 113.046875 72.273438 L 87.4375 72.273438 C 86.808594 72.273438 86.320312 71.808594 86.246094 71.207031 C 86.234375 71.15625 86.207031 71.109375 86.207031 71.046875 C 86.207031 70.371094 86.761719 69.816406 87.4375 69.816406 L 112.1875 69.816406 C 112.496094 68.800781 112.863281 66.90625 111.855469 65.496094 C 110.59375 63.714844 107.378906 63.027344 102.554688 63.480469 C 101.964844 63.554688 101.425781 63.164062 101.253906 62.597656 C 101.082031 62.035156 101.351562 61.433594 101.878906 61.160156 C 102.101562 61.050781 107.5 58.105469 104.898438 48.675781 C 104.714844 48.023438 105.105469 47.347656 105.757812 47.164062 C 106.40625 46.980469 107.082031 47.371094 107.265625 48.023438 C 109.082031 54.605469 107.5 58.632812 105.757812 60.902344 C 109.707031 60.976562 112.433594 62.046875 113.867188 64.082031 Z M 174.417969 57.550781 C 181.191406 56.3125 185.460938 54.800781 185.523438 54.777344 C 186.160156 54.542969 186.859375 54.875 187.09375 55.511719 C 187.328125 56.152344 186.996094 56.851562 186.359375 57.085938 C 185.914062 57.246094 175.300781 61.003906 160.464844 61.554688 C 153.089844 61.824219 149.199219 64.527344 147.234375 66.75 C 146.167969 67.953125 145.628906 69.082031 145.382812 69.804688 L 154.109375 69.804688 C 154.78125 69.804688 155.335938 70.359375 155.335938 71.035156 C 155.335938 71.058594 155.324219 71.070312 155.324219 71.09375 C 155.285156 71.746094 154.769531 72.261719 154.109375 72.261719 L 144.230469 72.261719 C 143.664062 72.261719 143.074219 71.882812 142.867188 71.109375 C 142.828125 70.949219 142.769531 70.789062 142.769531 70.605469 C 142.71875 67.828125 146.953125 59.601562 160.367188 59.097656 C 163.777344 58.976562 166.957031 58.667969 169.851562 58.265625 C 164.046875 56.054688 152.15625 52.75 138.4375 55.746094 C 137.773438 55.894531 137.125 55.476562 136.976562 54.8125 C 136.828125 54.148438 137.246094 53.5 137.910156 53.351562 C 156.683594 49.25 171.765625 56.214844 174.417969 57.550781 Z M 153.359375 25.664062 C 153.53125 25.246094 155.125 21.609375 157.789062 21.609375 C 160.5625 21.609375 161.691406 25.378906 161.800781 25.808594 C 161.984375 26.460938 161.605469 27.136719 160.941406 27.320312 C 160.292969 27.503906 159.617188 27.113281 159.433594 26.460938 C 159.152344 25.464844 158.390625 24.066406 157.777344 24.066406 C 157.089844 24.066406 156.058594 25.550781 155.617188 26.609375 C 155.421875 27.074219 154.964844 27.371094 154.488281 27.371094 C 154.328125 27.371094 154.167969 27.34375 154.023438 27.273438 C 153.394531 27 153.101562 26.289062 153.359375 25.664062 Z M 176.417969 25.664062 C 176.589844 25.246094 178.183594 21.609375 180.847656 21.609375 C 183.621094 21.609375 184.75 25.378906 184.859375 25.808594 C 185.042969 26.460938 184.664062 27.136719 184 27.320312 C 183.351562 27.503906 182.675781 27.113281 182.492188 26.460938 C 182.210938 25.464844 181.449219 24.066406 180.835938 24.066406 C 180.148438 24.066406 179.117188 25.550781 178.675781 26.609375 C 178.480469 27.074219 178.023438 27.371094 177.546875 27.371094 C 177.386719 27.371094 177.226562 27.34375 177.082031 27.273438 C 176.453125 27 176.160156 26.289062 176.417969 25.664062 Z M 164.992188 36.160156 C 164.6875 35.558594 164.945312 34.824219 165.542969 34.515625 C 166.144531 34.222656 166.882812 34.453125 167.1875 35.054688 C 167.25 35.179688 167.816406 36.136719 169.105469 36.136719 C 170.589844 36.136719 171.644531 34.859375 171.644531 34.847656 C 172.074219 34.320312 172.835938 34.234375 173.363281 34.652344 C 173.890625 35.070312 173.976562 35.828125 173.570312 36.371094 C 173.496094 36.457031 171.804688 38.59375 169.105469 38.59375 C 166.808594 38.582031 165.433594 37.058594 164.992188 36.160156 Z M 129.894531 37.167969 C 129.796875 36.492188 130.25 35.867188 130.914062 35.769531 L 151.691406 32.539062 L 144.242188 28.132812 L 132.730469 21.328125 C 132.140625 20.984375 131.957031 20.234375 132.300781 19.644531 C 132.644531 19.070312 133.394531 18.871094 133.980469 19.214844 L 145.125 25.808594 L 155.898438 32.183594 C 156.339844 32.441406 156.574219 32.957031 156.476562 33.472656 C 156.378906 33.988281 155.972656 34.367188 155.457031 34.453125 L 131.292969 38.1875 C 131.234375 38.199219 131.171875 38.199219 131.097656 38.199219 C 130.507812 38.210938 129.992188 37.769531 129.894531 37.167969 Z M 180.664062 32.183594 L 190.480469 26.363281 L 203.574219 18.589844 C 204.152344 18.246094 204.914062 18.441406 205.257812 19.019531 C 205.601562 19.597656 205.402344 20.359375 204.828125 20.703125 L 191.082031 28.855469 L 185.179688 32.355469 L 192.089844 32.980469 L 203.207031 33.976562 C 203.882812 34.039062 204.386719 34.640625 204.324219 35.3125 C 204.261719 35.953125 203.734375 36.433594 203.097656 36.433594 C 203.058594 36.433594 203.023438 36.433594 202.984375 36.433594 L 192.703125 35.511719 L 181.167969 34.46875 C 180.640625 34.417969 180.199219 34.039062 180.074219 33.507812 C 179.964844 32.992188 180.199219 32.453125 180.664062 32.183594 Z M 230.253906 140.605469 L 230.253906 208.179688 C 230.253906 208.621094 230.019531 209.023438 229.628906 209.246094 L 205.378906 222.9375 C 205.183594 223.046875 204.984375 223.097656 204.777344 223.097656 C 204.347656 223.097656 203.929688 222.875 203.710938 222.46875 C 203.378906 221.882812 203.585938 221.132812 204.175781 220.800781 L 227.800781 207.464844 L 227.800781 141.835938 L 134.765625 141.835938 L 134.765625 177.8125 C 134.765625 178.488281 134.214844 179.039062 133.539062 179.039062 C 132.867188 179.039062 132.3125 178.488281 132.3125 177.8125 L 132.3125 140.605469 C 132.3125 139.929688 132.867188 139.378906 133.539062 139.378906 L 229.015625 139.378906 C 229.703125 139.378906 230.253906 139.917969 230.253906 140.605469 Z M 182.332031 234.527344 C 182.542969 234.882812 182.566406 235.339844 182.355469 235.71875 C 182.136719 236.125 181.71875 236.347656 181.289062 236.347656 C 181.082031 236.347656 180.882812 236.296875 180.6875 236.1875 L 132.953125 209.246094 C 132.570312 209.023438 132.324219 208.621094 132.324219 208.179688 L 132.324219 191.699219 C 132.324219 191.023438 132.878906 190.472656 133.550781 190.472656 C 134.226562 190.472656 134.78125 191.023438 134.78125 191.699219 L 134.78125 207.453125 L 181.890625 234.050781 C 182.085938 234.171875 182.222656 234.34375 182.332031 234.527344 Z M 208.015625 191.355469 L 190.332031 191.355469 L 190.332031 194.917969 C 190.332031 195.59375 189.78125 196.144531 189.105469 196.144531 C 188.429688 196.144531 187.878906 195.59375 187.878906 194.917969 L 187.878906 190.128906 C 187.878906 189.453125 188.429688 188.898438 189.105469 188.898438 L 206.789062 188.898438 L 206.789062 175.699219 L 189.105469 175.699219 C 188.429688 175.699219 187.878906 175.148438 187.878906 174.472656 L 187.878906 165.1875 C 187.878906 164.515625 188.429688 163.960938 189.105469 163.960938 C 189.78125 163.960938 190.332031 164.515625 190.332031 165.1875 L 190.332031 173.242188 L 208.015625 173.242188 C 208.691406 173.242188 209.246094 173.796875 209.246094 174.472656 L 209.246094 190.128906 C 209.246094 190.804688 208.691406 191.355469 208.015625 191.355469 Z M 155.777344 175.699219 L 155.777344 188.898438 L 161.015625 188.898438 C 161.691406 188.898438 162.242188 189.453125 162.242188 190.128906 C 162.242188 190.804688 161.691406 191.355469 161.015625 191.355469 L 154.550781 191.355469 C 153.875 191.355469 153.324219 190.804688 153.324219 190.128906 L 153.324219 174.472656 C 153.324219 173.796875 153.875 173.242188 154.550781 173.242188 L 172.234375 173.242188 L 172.234375 155.550781 C 172.234375 154.875 172.785156 154.320312 173.460938 154.320312 L 189.105469 154.320312 C 189.78125 154.320312 190.332031 154.875 190.332031 155.550781 C 190.332031 156.226562 189.78125 156.777344 189.105469 156.777344 L 174.699219 156.777344 L 174.699219 174.472656 C 174.699219 175.148438 174.148438 175.699219 173.472656 175.699219 Z M 190.332031 204.113281 L 190.332031 209.050781 C 190.332031 209.726562 189.78125 210.277344 189.105469 210.277344 L 173.460938 210.277344 C 172.785156 210.277344 172.234375 209.726562 172.234375 209.050781 L 172.234375 191.355469 L 171.828125 191.355469 C 171.152344 191.355469 170.601562 190.804688 170.601562 190.128906 C 170.601562 189.453125 171.152344 188.898438 171.828125 188.898438 L 173.460938 188.898438 C 174.136719 188.898438 174.6875 189.453125 174.6875 190.128906 L 174.6875 207.820312 L 187.878906 207.820312 L 187.878906 204.113281 C 187.878906 203.4375 188.429688 202.886719 189.105469 202.886719 C 189.78125 202.886719 190.332031 203.4375 190.332031 204.113281 Z M 67.800781 213.410156 L 67.800781 342.375 C 67.800781 343.050781 67.25 343.601562 66.574219 343.601562 C 65.898438 343.601562 65.347656 343.050781 65.347656 342.375 L 65.347656 213.410156 C 65.347656 212.734375 65.898438 212.179688 66.574219 212.179688 C 67.25 212.179688 67.800781 212.734375 67.800781 213.410156 Z M 92.136719 246.992188 L 92.136719 282.945312 C 92.136719 283.621094 91.582031 284.171875 90.910156 284.171875 C 90.234375 284.171875 89.679688 283.621094 89.679688 282.945312 L 89.679688 246.992188 C 89.679688 246.316406 90.234375 245.765625 90.910156 245.765625 C 91.582031 245.765625 92.136719 246.316406 92.136719 246.992188 Z M 92.136719 153.992188 L 92.136719 222.382812 C 92.136719 223.058594 91.582031 223.613281 90.910156 223.613281 C 90.234375 223.613281 89.679688 223.058594 89.679688 222.382812 L 89.679688 153.992188 C 89.679688 153.316406 90.234375 152.761719 90.910156 152.761719 C 91.582031 152.761719 92.136719 153.304688 92.136719 153.992188 Z M 92.136719 153.992188 " fill-opacity="1" fill-rule="nonzero"/></svg>