<svg xmlns="http://www.w3.org/2000/svg" xmlns:xlink="http://www.w3.org/1999/xlink" width="500" zoomAndPan="magnify" viewBox="0 0 375 374.999991" height="500" preserveAspectRatio="xMidYMid meet" version="1.0"><defs><clipPath id="630113f633"><path d="M 4.773438 0 L 369 0 L 369 375 L 4.773438 375 Z M 4.773438 0 " clip-rule="nonzero"/></clipPath></defs><path fill="#a8f2fe" d="M 286.292969 241.625 C 285.691406 246.875 284.417969 251.675781 282.542969 255.953125 C 281.640625 258.125 280.515625 260.226562 279.316406 262.101562 C 274.363281 269.679688 267.011719 274.929688 258.835938 277.105469 C 255.984375 277.929688 253.058594 278.304688 250.058594 278.304688 C 243.984375 278.304688 238.058594 276.65625 232.882812 273.429688 C 227.105469 269.902344 222.753906 264.726562 220.128906 258.875 C 217.953125 253.925781 216.828125 248.523438 217.128906 243.046875 C 217.351562 238.699219 218.402344 234.273438 220.277344 230.070312 C 223.878906 222.195312 230.257812 215.519531 238.507812 210.792969 C 241.359375 209.140625 244.433594 207.714844 247.660156 206.667969 C 249.761719 205.765625 252.011719 204.867188 254.261719 204.039062 C 254.710938 203.890625 255.234375 203.742188 255.761719 203.589844 C 257.9375 202.914062 260.785156 202.242188 263.863281 202.242188 C 267.3125 202.242188 270.613281 202.992188 273.613281 204.492188 C 279.992188 207.640625 284.417969 213.71875 285.765625 221.144531 C 286.890625 227.519531 287.042969 234.796875 286.292969 241.625 Z M 286.292969 241.625 " fill-opacity="1" fill-rule="nonzero"/><path fill="#a8f2fe" d="M 207.152344 261.425781 C 206.625 261.425781 206.027344 261.425781 205.5 261.351562 C 187.722656 260.453125 173.996094 245.972656 173.46875 227.671875 C 173.167969 216.117188 178.269531 204.117188 187.574219 194.738281 C 188.996094 193.089844 190.574219 191.214844 192.375 189.414062 C 197.550781 184.011719 203.550781 181.234375 210 181.234375 C 217.351562 181.386719 223.730469 184.835938 228.304688 190.988281 C 232.882812 197.214844 235.957031 204.117188 237.683594 208.765625 C 240.53125 216.492188 241.507812 224.070312 240.457031 231.347656 C 237.980469 248.898438 223.953125 261.425781 207.152344 261.425781 Z M 207.152344 261.425781 " fill-opacity="1" fill-rule="nonzero"/><path fill="#a8f2fe" d="M 264.6875 302.683594 C 264.164062 316.261719 257.636719 328.640625 246.835938 335.46875 C 241.433594 338.917969 235.582031 340.566406 229.355469 340.566406 C 223.578125 340.566406 217.652344 339.066406 211.726562 336.066406 C 207.828125 334.117188 203.925781 331.492188 200.023438 328.265625 L 198.300781 326.839844 C 195.148438 324.214844 192.449219 321.890625 190.199219 321.289062 C 189.222656 320.988281 188.246094 320.914062 187.273438 320.914062 C 185.847656 320.914062 184.496094 321.140625 183.296875 321.664062 C 182.320312 322.039062 180.820312 322.863281 179.394531 323.613281 C 176.769531 325.039062 173.695312 326.765625 170.09375 328.039062 C 166.867188 329.164062 163.34375 330.066406 159.515625 330.066406 C 151.789062 330.066406 144.738281 326.691406 139.488281 320.390625 C 132.960938 312.511719 132.136719 304.035156 133.710938 296.460938 C 135.511719 287.308594 140.6875 279.429688 143.464844 275.304688 C 145.265625 272.605469 147.140625 270.054688 148.941406 267.652344 C 156.367188 258.203125 164.316406 251.375 173.167969 247.023438 C 174.746094 246.273438 176.320312 245.824219 177.820312 245.523438 C 178.121094 245.375 178.421875 245.300781 178.71875 245.148438 C 183.671875 243.125 188.773438 241.773438 194.023438 241.171875 C 196.5 240.875 198.976562 240.722656 201.375 240.722656 C 204.226562 240.722656 207.078125 240.949219 209.925781 241.398438 C 212.402344 241.773438 214.804688 242.296875 217.203125 242.898438 C 222.605469 244.398438 227.78125 246.574219 232.65625 249.351562 C 243.984375 255.875 253.285156 265.628906 258.988281 276.957031 C 261.761719 282.507812 263.636719 288.359375 264.460938 294.433594 C 264.6875 297.285156 264.835938 299.984375 264.6875 302.683594 Z M 264.6875 302.683594 " fill-opacity="1" fill-rule="nonzero"/><path fill="#a8f2fe" d="M 193.875 241.25 C 193.125 246.425781 191.171875 251.300781 188.246094 255.5 C 183.222656 262.851562 175.417969 268.179688 166.191406 269.605469 C 164.46875 269.902344 162.742188 270.054688 161.015625 270.054688 C 156.742188 270.054688 152.617188 269.230469 148.789062 267.730469 C 138.886719 263.828125 131.085938 255.199219 127.785156 243.949219 C 126.808594 240.648438 126.210938 237.273438 126.058594 233.671875 C 125.835938 229.921875 126.136719 225.945312 126.734375 221.667969 C 127.335938 217.992188 128.160156 214.691406 128.910156 211.765625 C 129.734375 208.617188 130.9375 203.816406 134.761719 199.390625 C 138.886719 194.515625 144.738281 191.8125 151.113281 191.8125 C 153.214844 191.8125 155.164062 192.113281 157.042969 192.5625 C 161.542969 193.6875 165.21875 196.015625 167.617188 197.515625 C 169.042969 198.414062 170.46875 199.316406 171.820312 200.214844 C 174.519531 201.867188 176.996094 203.664062 179.320312 205.691406 C 187.722656 212.96875 192.972656 222.269531 194.097656 232.320312 C 194.472656 235.398438 194.398438 238.398438 193.875 241.25 Z M 193.875 241.25 " fill-opacity="1" fill-rule="nonzero"/><g clip-path="url(#630113f633)"><path fill="#a8f2fe" d="M 368.957031 171.632812 C 367.984375 198.863281 348.328125 223.542969 323.875 230.671875 C 323.722656 232.996094 323.648438 235.246094 323.5 237.496094 C 321.324219 268.628906 312.171875 312.363281 280.515625 343.71875 C 267.011719 357.144531 250.210938 366.824219 231.980469 371.625 C 223.429688 373.875 215.179688 375 207.453125 375 C 202.050781 375 196.875 374.476562 192.074219 373.351562 C 187.871094 372.824219 184.121094 372.222656 180.597656 371.398438 C 168.519531 368.699219 157.191406 364.421875 147.0625 358.570312 C 139.414062 354.144531 131.984375 348.746094 125.160156 342.445312 C 117.734375 337.71875 112.257812 330.066406 108.804688 325.414062 L 108.582031 325.039062 C 102.503906 316.5625 97.78125 307.035156 94.402344 296.757812 C 90.054688 283.480469 87.953125 268.855469 87.652344 250.851562 C 86.828125 247.625 86.527344 244.171875 86.601562 240.5 C 85.625 237.648438 84.800781 234.871094 84.050781 232.171875 C 83.375 229.996094 82.777344 227.820312 82.101562 225.71875 C 79.777344 218.667969 77.148438 210.640625 73.773438 203.589844 C 68.898438 193.386719 62.746094 183.9375 56.222656 173.882812 C 53.746094 170.058594 51.269531 166.308594 48.871094 162.40625 C 42.792969 156.332031 37.617188 149.65625 33.339844 142.304688 C 26.664062 130.902344 22.613281 118.074219 21.1875 104.195312 C 20.289062 95.492188 20.664062 87.542969 22.238281 80.492188 C 11.664062 72.238281 5.0625 59.261719 4.910156 45.160156 C 4.835938 33.15625 9.785156 21.453125 18.414062 12.753906 C 25.914062 5.175781 35.515625 0.824219 45.644531 0.300781 C 46.769531 0.148438 47.820312 0 48.871094 0 L 49.695312 0 L 50.746094 0.148438 C 74.898438 2.25 93.277344 22.65625 92.378906 46.585938 C 91.929688 58.960938 86.527344 70.664062 77.375 78.691406 C 72.347656 83.117188 66.722656 86.34375 60.945312 88.066406 C 60.722656 92.417969 60.648438 96.542969 61.023438 100.296875 C 61.773438 107.945312 64.246094 115.597656 68.074219 122.273438 C 71.675781 128.5 76.925781 134.425781 83.75 139.976562 C 86.828125 142.527344 90.277344 144.777344 93.878906 146.730469 C 95.230469 147.480469 96.804688 148.15625 98.453125 148.828125 C 99.804688 149.429688 101.078125 149.953125 102.355469 150.554688 C 102.730469 150.628906 103.179688 150.707031 103.554688 150.78125 C 106.40625 151.230469 109.707031 151.457031 113.15625 151.457031 C 115.40625 151.457031 117.808594 151.304688 120.207031 151.15625 C 131.835938 150.253906 142.1875 147.105469 150.214844 142.003906 C 160.265625 135.628906 165.21875 125.800781 167.542969 118.671875 C 169.570312 112.523438 170.617188 105.695312 171.667969 98.496094 C 171.746094 98.042969 171.820312 97.519531 171.894531 96.996094 C 158.464844 89.191406 149.539062 74.566406 149.464844 58.210938 C 149.390625 46.285156 154.339844 34.507812 162.96875 25.878906 C 170.46875 18.304688 180.070312 13.953125 190.199219 13.425781 C 191.25 13.203125 192.296875 13.128906 193.421875 13.128906 L 194.324219 13.128906 L 195.148438 13.203125 C 219.453125 15.453125 237.832031 35.78125 237.007812 59.636719 C 236.558594 72.089844 231.082031 83.792969 222.003906 91.820312 C 219.304688 94.144531 215.027344 97.371094 209.402344 99.769531 C 209.476562 128.949219 195.148438 158.054688 172.121094 173.507812 C 167.769531 180.484375 162.515625 186.636719 157.117188 192.414062 C 155.242188 191.964844 153.289062 191.664062 151.191406 191.664062 C 144.8125 191.664062 139.039062 194.363281 134.835938 199.238281 C 131.011719 203.664062 129.8125 208.464844 128.984375 211.617188 C 128.234375 214.542969 127.410156 217.917969 126.808594 221.519531 C 126.136719 225.796875 125.910156 229.695312 126.136719 233.523438 C 126.285156 237.121094 126.886719 240.5 127.859375 243.796875 C 131.160156 255.050781 138.960938 263.679688 148.863281 267.578125 C 146.988281 269.902344 145.1875 272.53125 143.386719 275.230469 C 140.613281 279.355469 135.4375 287.234375 133.636719 296.382812 C 132.0625 303.960938 132.886719 312.4375 139.414062 320.3125 C 144.589844 326.539062 151.714844 329.992188 159.441406 329.992188 C 163.265625 329.992188 166.867188 329.164062 170.019531 327.964844 C 173.542969 326.691406 176.695312 325.039062 179.320312 323.539062 C 180.746094 322.789062 182.246094 321.964844 183.222656 321.589844 C 184.421875 321.0625 185.847656 320.839844 187.199219 320.839844 C 188.171875 320.839844 189.148438 320.988281 190.121094 321.214844 C 192.375 321.8125 195.074219 324.066406 198.222656 326.765625 L 199.949219 328.191406 C 203.851562 331.417969 207.828125 334.042969 211.652344 335.992188 C 217.578125 338.917969 223.503906 340.492188 229.28125 340.492188 C 235.507812 340.492188 241.359375 338.84375 246.757812 335.390625 C 257.5625 328.566406 264.085938 316.1875 264.613281 302.609375 C 264.761719 299.910156 264.539062 297.210938 264.238281 294.507812 C 263.414062 288.433594 261.535156 282.507812 258.761719 277.03125 C 266.9375 274.855469 274.214844 269.605469 279.242188 262.027344 C 280.515625 260.152344 281.566406 258.050781 282.464844 255.875 C 284.339844 251.601562 285.617188 246.800781 286.21875 241.546875 C 286.96875 234.722656 286.816406 227.519531 285.765625 220.996094 C 284.339844 213.566406 279.992188 207.492188 273.613281 204.339844 C 270.613281 202.839844 267.3125 202.089844 263.863281 202.089844 C 260.710938 202.089844 257.9375 202.765625 255.761719 203.441406 C 249.609375 193.613281 246.160156 181.988281 246.085938 169.609375 C 246.085938 154.082031 252.234375 138.328125 262.960938 126.398438 C 274.140625 113.949219 288.992188 106.894531 304.671875 106.519531 C 305.796875 106.296875 306.921875 106.144531 308.121094 106.144531 L 309.023438 106.144531 L 309.996094 106.222656 C 344.804688 109.597656 370.160156 137.652344 368.957031 171.632812 Z M 368.957031 171.632812 " fill-opacity="1" fill-rule="nonzero"/></g><path fill="#a8f2fe" d="M 157.042969 192.5625 C 154.941406 194.8125 152.839844 196.988281 150.738281 199.238281 C 146.839844 203.289062 143.164062 207.117188 139.9375 210.941406 C 133.9375 218.21875 129.660156 224.820312 127.035156 231.121094 C 126.734375 231.945312 126.359375 232.773438 126.058594 233.597656 C 125.835938 229.847656 126.136719 225.871094 126.734375 221.59375 C 127.335938 217.917969 128.160156 214.617188 128.910156 211.691406 C 129.734375 208.542969 130.9375 203.742188 134.761719 199.316406 C 138.886719 194.4375 144.738281 191.738281 151.113281 191.738281 C 153.214844 191.8125 155.164062 192.113281 157.042969 192.5625 Z M 157.042969 192.5625 " fill-opacity="1" fill-rule="nonzero"/><path fill="#a8f2fe" d="M 170.019531 328.117188 C 166.792969 329.242188 163.265625 330.140625 159.441406 330.140625 C 151.714844 330.140625 144.664062 326.765625 139.414062 320.464844 C 132.886719 312.585938 132.0625 304.109375 133.636719 296.535156 C 134.761719 298.785156 135.960938 300.886719 137.3125 302.910156 C 137.6875 303.359375 137.988281 303.734375 138.210938 304.1875 C 146.3125 313.414062 155.390625 320.765625 165.367188 325.863281 C 166.941406 326.617188 168.519531 327.367188 170.019531 328.117188 Z M 170.019531 328.117188 " fill-opacity="1" fill-rule="nonzero"/><path fill="#a8f2fe" d="M 264.6875 302.683594 C 264.164062 316.261719 257.636719 328.640625 246.835938 335.46875 C 241.433594 338.917969 235.582031 340.566406 229.355469 340.566406 C 223.578125 340.566406 217.652344 339.066406 211.726562 336.066406 C 217.804688 335.691406 223.128906 334.640625 228.082031 332.765625 C 242.484375 327.589844 255.085938 317.011719 264.6875 302.683594 Z M 264.6875 302.683594 " fill-opacity="1" fill-rule="nonzero"/><path fill="#a8f2fe" d="M 286.292969 241.625 C 285.691406 246.875 284.417969 251.675781 282.542969 255.953125 C 284.117188 247.472656 285.167969 238.472656 285.691406 228.796875 C 273.164062 223.621094 262.738281 214.691406 255.761719 203.441406 C 257.9375 202.765625 260.785156 202.089844 263.863281 202.089844 C 267.3125 202.089844 270.613281 202.839844 273.613281 204.339844 C 279.992188 207.492188 284.417969 213.566406 285.765625 220.996094 C 286.890625 227.519531 287.042969 234.796875 286.292969 241.625 Z M 286.292969 241.625 " fill-opacity="1" fill-rule="nonzero"/><path fill="#e0e8e8" d="M 294.769531 187.011719 C 296.117188 187.386719 296.71875 185.4375 295.367188 184.910156 C 289.066406 182.8125 286.59375 175.234375 286.96875 169.082031 C 287.417969 162.105469 291.09375 155.207031 297.167969 151.605469 C 302.871094 148.230469 310.222656 148.003906 315.921875 151.679688 C 321.25 155.054688 324.101562 162.183594 322.75 168.332031 C 322 171.710938 320.125 174.484375 317.574219 176.734375 C 315.097656 178.984375 311.722656 180.5625 309.773438 183.335938 C 309.023438 184.460938 309.921875 186.261719 311.273438 186.113281 C 315.023438 185.8125 318.398438 183.261719 321.175781 180.9375 C 324.175781 178.3125 326.574219 174.933594 327.773438 171.109375 C 330.324219 162.933594 327.324219 153.554688 320.347656 148.605469 C 313.746094 143.878906 304.519531 143.878906 297.320312 147.253906 C 289.742188 150.929688 284.867188 158.808594 283.890625 167.058594 C 282.917969 174.933594 286.59375 184.761719 294.769531 187.011719 Z M 301.070312 172.460938 C 300.769531 180.335938 301.371094 188.363281 301.59375 196.164062 C 301.746094 201.941406 301.894531 207.714844 301.894531 213.417969 C 301.746094 213.492188 301.671875 213.566406 301.59375 213.644531 C 281.492188 208.917969 266.1875 191.136719 266.339844 169.683594 C 266.488281 147.703125 285.242188 126.175781 308.195312 128.050781 C 308.570312 128.125 308.945312 128.050781 309.246094 127.902344 C 330.925781 130.902344 348.03125 148.378906 347.277344 171.035156 C 346.902344 182.511719 341.953125 193.539062 333.402344 201.191406 C 326.199219 207.492188 317.347656 210.71875 308.121094 212.367188 C 308.046875 208.617188 307.972656 204.941406 307.894531 201.265625 C 307.597656 191.738281 307.296875 181.761719 305.570312 172.234375 C 305.722656 172.160156 305.871094 172.085938 305.945312 172.085938 C 305.945312 172.085938 305.945312 172.085938 305.945312 172.007812 C 306.847656 171.484375 307.597656 170.808594 308.121094 169.910156 C 308.722656 169.007812 309.023438 167.957031 309.023438 166.910156 C 308.945312 166.382812 308.945312 165.859375 308.871094 165.332031 C 308.648438 164.28125 308.121094 163.382812 307.371094 162.632812 C 306.847656 162.03125 306.171875 161.582031 305.421875 161.355469 C 304.746094 160.90625 303.921875 160.757812 303.09375 160.757812 C 302.046875 160.757812 300.996094 160.980469 300.019531 161.507812 C 299.570312 161.808594 299.121094 162.105469 298.746094 162.484375 C 298.667969 162.484375 298.667969 162.558594 298.59375 162.558594 C 297.996094 163.082031 297.542969 163.683594 297.320312 164.433594 C 297.019531 164.882812 296.871094 165.40625 296.871094 165.933594 C 296.71875 166.757812 296.644531 167.507812 296.945312 168.332031 C 297.167969 168.785156 297.320312 169.234375 297.542969 169.757812 C 297.84375 170.210938 298.144531 170.585938 298.445312 171.035156 C 298.96875 171.632812 299.644531 172.085938 300.394531 172.308594 C 300.621094 172.308594 300.84375 172.382812 301.070312 172.460938 Z M 301.070312 172.460938 " fill-opacity="1" fill-rule="nonzero"/><path fill="#e0e8e8" d="M 39.492188 44.257812 C 40.167969 39.457031 44.21875 36.230469 48.792969 35.632812 C 50.519531 37.207031 52.84375 38.109375 54.421875 39.757812 C 56.144531 41.632812 56.820312 44.257812 56.519531 46.734375 C 56.222656 49.136719 55.019531 51.085938 53.21875 52.433594 C 51.644531 53.710938 49.246094 54.3125 46.917969 54.234375 C 46.84375 54.234375 46.695312 54.160156 46.621094 54.160156 C 42.191406 53.9375 38.894531 48.835938 39.492188 44.257812 Z M 39.492188 44.257812 " fill-opacity="1" fill-rule="nonzero"/><path fill="#e0e8e8" d="M 193.199219 48.910156 C 194.921875 50.484375 197.25 51.386719 198.824219 53.109375 C 200.550781 54.984375 201.300781 57.535156 200.925781 60.085938 C 200.625 62.488281 199.425781 64.4375 197.625 65.789062 C 196.050781 67.0625 193.648438 67.664062 191.324219 67.589844 C 191.171875 67.589844 191.097656 67.511719 191.023438 67.511719 C 186.597656 67.214844 183.296875 62.039062 183.972656 57.535156 C 184.570312 52.734375 188.621094 49.511719 193.199219 48.910156 Z M 193.199219 48.910156 " fill-opacity="1" fill-rule="nonzero"/><path fill="#0097cd" d="M 62.972656 62.789062 C 58.019531 67.214844 51.570312 68.640625 45.34375 70.214844 C 45.195312 70.214844 45.195312 70.289062 45.117188 70.363281 C 33.792969 67.4375 25.089844 57.3125 25.238281 45.160156 C 25.390625 32.707031 35.96875 20.628906 48.945312 21.753906 C 49.167969 21.753906 49.394531 21.679688 49.621094 21.679688 C 61.773438 23.480469 71.300781 33.230469 70.925781 45.835938 C 70.625 52.285156 67.847656 58.4375 62.972656 62.789062 Z M 49.621094 32.554688 C 46.621094 32.179688 43.542969 32.855469 40.992188 34.65625 C 37.917969 36.832031 35.890625 40.132812 35.292969 43.808594 C 34.167969 50.785156 38.441406 57.6875 45.195312 59.488281 C 45.570312 59.710938 46.019531 59.785156 46.394531 59.863281 C 54.195312 60.761719 61.171875 54.910156 61.996094 47.109375 C 62.449219 43.207031 61.097656 39.234375 58.472656 36.230469 C 56.519531 33.980469 52.84375 31.429688 49.621094 32.554688 Z M 49.621094 32.554688 " fill-opacity="1" fill-rule="nonzero"/><path fill="#0097cd" d="M 190.871094 73.140625 C 198.75 74.039062 205.652344 68.113281 206.476562 60.386719 C 206.925781 56.484375 205.574219 52.511719 202.949219 49.511719 C 200.925781 47.183594 197.175781 44.632812 194.023438 45.757812 C 191.023438 45.382812 187.949219 46.058594 185.398438 47.933594 C 182.320312 50.109375 180.296875 53.410156 179.695312 57.085938 C 178.570312 64.0625 182.769531 70.964844 189.597656 72.765625 C 190.046875 72.914062 190.421875 73.066406 190.871094 73.140625 Z M 189.523438 83.566406 C 178.195312 80.714844 169.492188 70.589844 169.644531 58.363281 C 169.792969 45.984375 180.371094 33.90625 193.347656 34.957031 C 193.574219 35.03125 193.796875 34.957031 194.023438 34.882812 C 206.175781 36.683594 215.703125 46.433594 215.328125 59.035156 C 215.101562 65.488281 212.328125 71.714844 207.527344 75.988281 C 202.574219 80.417969 196.125 81.765625 189.824219 83.339844 C 189.671875 83.417969 189.597656 83.492188 189.523438 83.566406 Z M 189.523438 83.566406 " fill-opacity="1" fill-rule="nonzero"/><path fill="#e0e8e8" d="M 111.882812 179.886719 C 101.605469 179.585938 91.328125 177.410156 81.652344 173.808594 C 79.027344 169.609375 76.175781 165.632812 73.097656 161.882812 C 78.277344 165.558594 84.125 169.007812 90.203125 170.882812 C 99.730469 174.335938 111.058594 174.484375 120.582031 173.734375 C 131.3125 172.984375 142.1875 170.734375 152.089844 166.308594 C 149.316406 169.234375 146.613281 172.085938 143.839844 175.011719 C 141.363281 175.308594 139.113281 176.285156 136.710938 176.960938 C 134.011719 177.636719 131.234375 178.3125 128.460938 178.761719 C 123.058594 179.660156 117.433594 180.035156 111.882812 179.886719 Z M 111.882812 179.886719 " fill-opacity="1" fill-rule="nonzero"/><path fill="#e0e8e8" d="M 139.863281 179.359375 C 133.113281 186.335938 126.285156 193.238281 120.359375 200.964844 C 114.65625 208.316406 109.78125 216.269531 106.40625 224.96875 C 106.257812 225.34375 106.105469 225.796875 105.957031 226.171875 C 105.882812 226.09375 105.882812 226.019531 105.804688 226.019531 C 104.980469 222.871094 103.929688 219.71875 102.730469 216.566406 C 106.257812 209.59375 110.230469 202.914062 115.257812 196.914062 C 118.035156 193.613281 120.960938 190.613281 124.109375 187.761719 C 125.683594 186.335938 127.335938 185.0625 128.984375 183.710938 C 130.335938 182.660156 131.835938 181.835938 133.035156 180.636719 C 135.511719 180.1875 138.0625 179.660156 140.386719 178.835938 C 140.238281 178.984375 140.085938 179.136719 139.863281 179.359375 Z M 139.863281 179.359375 " fill-opacity="1" fill-rule="nonzero"/><path fill="#e0e8e8" d="M 127.859375 181.988281 C 126.136719 183.261719 124.558594 184.613281 122.910156 186.039062 C 119.457031 189.039062 116.308594 192.339844 113.382812 195.863281 C 108.730469 201.414062 104.753906 207.566406 101.90625 214.167969 C 99.203125 207.492188 96.128906 200.964844 93.203125 194.8125 C 90.351562 188.738281 87.128906 182.585938 83.527344 176.660156 C 92.453125 180.1875 101.679688 182.136719 111.355469 182.4375 C 116.984375 182.660156 122.535156 182.285156 128.085938 181.386719 C 128.308594 181.386719 128.535156 181.3125 128.761719 181.3125 C 128.386719 181.535156 128.085938 181.761719 127.859375 181.988281 Z M 127.859375 181.988281 " fill-opacity="1" fill-rule="nonzero"/><path fill="#e52e2e" d="M 148.488281 215.894531 C 148.863281 213.941406 149.390625 211.015625 152.015625 211.390625 C 154.117188 211.691406 156.292969 213.417969 158.015625 214.46875 C 160.867188 216.191406 163.492188 218.367188 166.34375 220.09375 C 169.269531 222.71875 171.746094 225.796875 173.167969 229.695312 C 175.871094 236.824219 173.917969 245.222656 166.492188 248.523438 C 159.214844 251.75 151.566406 247.472656 148.414062 240.722656 C 144.890625 232.996094 146.839844 223.84375 148.488281 215.894531 Z M 148.488281 215.894531 " fill-opacity="1" fill-rule="nonzero"/><path fill="#e52e2e" d="M 202.949219 206.742188 C 204.375 205.242188 205.726562 203.589844 207.300781 202.242188 C 209.25 200.589844 210.976562 200.738281 212.402344 202.914062 C 214.578125 206.214844 216.226562 210.191406 217.804688 213.867188 C 219.453125 217.769531 220.578125 221.894531 220.429688 226.09375 C 220.203125 233.523438 215.328125 240.648438 207.453125 241.023438 C 199.5 241.398438 193.648438 234.722656 193.421875 227.144531 C 193.273438 221.820312 195.148438 217.394531 197.699219 213.191406 C 199.5 211.09375 201.074219 208.839844 202.949219 206.742188 Z M 202.949219 206.742188 " fill-opacity="1" fill-rule="nonzero"/><path fill="#e52e2e" d="M 266.339844 229.472656 C 266.339844 231.945312 266.339844 234.347656 266.113281 236.824219 C 265.886719 240.796875 265.210938 244.847656 263.414062 248.449219 C 260.035156 255.199219 252.761719 259.851562 245.183594 256.851562 C 237.90625 254 235.355469 245.75 238.058594 238.847656 C 240.082031 233.597656 243.984375 230.222656 248.410156 227.519531 C 251.183594 226.394531 253.8125 225.046875 256.511719 223.917969 C 259.0625 222.871094 264.988281 219.644531 266.113281 223.996094 C 266.5625 225.644531 266.339844 227.671875 266.339844 229.472656 Z M 266.339844 229.472656 " fill-opacity="1" fill-rule="nonzero"/><path fill="#e52e2e" d="M 237.53125 287.082031 C 241.582031 295.183594 243.535156 306.285156 236.78125 313.5625 C 228.832031 322.113281 218.554688 313.335938 211.878906 307.785156 C 205.277344 302.386719 198.449219 298.410156 189.824219 297.734375 C 181.421875 297.058594 174.292969 299.984375 167.09375 304.109375 C 162.59375 306.734375 156.441406 308.835938 155.839844 301.410156 C 155.464844 297.132812 157.492188 293.007812 159.667969 289.332031 C 159.96875 289.257812 160.265625 289.03125 160.417969 288.734375 C 168.070312 274.78125 182.546875 263.675781 198.824219 263.078125 C 215.402344 262.402344 230.179688 272.53125 237.53125 287.082031 Z M 237.53125 287.082031 " fill-opacity="1" fill-rule="nonzero"/><path fill="#232c33" d="M 297.246094 147.328125 C 304.445312 143.878906 313.671875 143.953125 320.273438 148.679688 C 327.25 153.628906 330.25 163.007812 327.699219 171.183594 C 326.5 175.011719 324.101562 178.386719 321.097656 181.011719 C 318.324219 183.410156 314.949219 185.960938 311.195312 186.1875 C 309.847656 186.335938 308.945312 184.535156 309.695312 183.410156 C 311.648438 180.636719 315.023438 179.136719 317.5 176.808594 C 320.046875 174.558594 321.925781 171.710938 322.675781 168.410156 C 323.949219 162.257812 321.097656 155.132812 315.847656 151.753906 C 310.222656 148.078125 302.796875 148.304688 297.09375 151.679688 C 291.019531 155.28125 287.34375 162.183594 286.890625 169.160156 C 286.515625 175.308594 288.992188 182.886719 295.292969 184.988281 C 296.570312 185.4375 296.042969 187.460938 294.695312 187.085938 C 286.515625 184.761719 282.839844 174.933594 283.742188 167.207031 C 284.792969 158.882812 289.667969 151.003906 297.246094 147.328125 Z M 297.246094 147.328125 " fill-opacity="1" fill-rule="nonzero"/><path fill="#232c33" d="M 234.757812 236.597656 C 238.132812 229.171875 245.558594 223.996094 253.359375 221.445312 C 255.386719 220.542969 257.484375 219.71875 259.585938 218.96875 C 261.835938 218.21875 264.3125 217.617188 266.488281 218.742188 C 268.511719 219.71875 269.5625 221.820312 269.9375 223.996094 C 270.765625 229.019531 270.839844 234.722656 270.238281 239.824219 C 269.714844 244.550781 268.4375 249.351562 265.8125 253.324219 C 260.410156 261.503906 249.835938 265.101562 241.132812 259.777344 C 233.257812 254.824219 231.007812 244.847656 234.757812 236.597656 Z M 248.410156 227.445312 C 243.984375 230.144531 240.082031 233.523438 238.058594 238.773438 C 235.355469 245.675781 237.90625 254 245.183594 256.777344 C 252.761719 259.703125 260.035156 255.125 263.414062 248.375 C 265.210938 244.773438 265.886719 240.722656 266.113281 236.746094 C 266.261719 234.273438 266.339844 231.871094 266.339844 229.394531 C 266.339844 227.59375 266.5625 225.570312 266.113281 223.84375 C 265.0625 219.570312 259.136719 222.792969 256.511719 223.769531 C 253.8125 224.96875 251.183594 226.320312 248.410156 227.445312 Z M 248.410156 227.445312 " fill-opacity="1" fill-rule="nonzero"/><path fill="#232c33" d="M 189.523438 227.296875 C 189.296875 219.195312 193.648438 211.316406 199.425781 205.617188 C 200.851562 203.890625 202.273438 202.242188 203.851562 200.664062 C 205.5 198.941406 207.527344 197.289062 210.078125 197.289062 C 212.402344 197.363281 214.203125 198.789062 215.476562 200.589844 C 218.480469 204.714844 220.953125 209.742188 222.753906 214.46875 C 224.480469 219.117188 225.378906 224.21875 224.703125 229.171875 C 223.355469 238.398438 216.003906 245.824219 206.324219 245.375 C 196.574219 244.925781 189.746094 236.746094 189.523438 227.296875 Z M 197.625 213.191406 C 195.074219 217.320312 193.199219 221.820312 193.347656 227.144531 C 193.574219 234.722656 199.425781 241.398438 207.375 241.023438 C 215.328125 240.648438 220.128906 233.597656 220.355469 226.09375 C 220.503906 221.894531 219.378906 217.769531 217.726562 213.867188 C 216.226562 210.191406 214.578125 206.214844 212.328125 202.914062 C 210.902344 200.738281 209.175781 200.589844 207.226562 202.242188 C 205.652344 203.589844 204.300781 205.242188 202.875 206.742188 C 201.074219 208.839844 199.5 211.09375 197.625 213.191406 Z M 197.625 213.191406 " fill-opacity="1" fill-rule="nonzero"/><path fill="#232c33" d="M 198.824219 53.035156 C 197.25 51.308594 194.921875 50.410156 193.199219 48.835938 C 188.699219 49.433594 184.570312 52.734375 183.898438 57.460938 C 183.296875 61.960938 186.523438 67.136719 190.949219 67.4375 C 191.023438 67.4375 191.097656 67.511719 191.25 67.511719 C 193.574219 67.589844 195.972656 66.988281 197.550781 65.714844 C 199.351562 64.363281 200.550781 62.414062 200.851562 60.011719 C 201.226562 57.535156 200.476562 54.984375 198.824219 53.035156 Z M 206.476562 60.386719 C 205.652344 68.113281 198.675781 74.039062 190.871094 73.140625 C 190.496094 73.066406 190.046875 72.914062 189.671875 72.691406 C 182.847656 70.964844 178.570312 63.988281 179.769531 57.011719 C 180.371094 53.335938 182.472656 50.035156 185.472656 47.859375 C 188.023438 46.058594 191.023438 45.382812 194.097656 45.683594 C 197.25 44.558594 201 47.109375 203.027344 49.433594 C 205.574219 52.433594 206.925781 56.410156 206.476562 60.386719 Z M 206.476562 60.386719 " fill-opacity="1" fill-rule="nonzero"/><path fill="#232c33" d="M 177.070312 306.960938 C 169.269531 310.1875 159.214844 319.265625 151.714844 310.261719 C 145.039062 302.234375 152.015625 291.359375 156.667969 284.308594 C 162.667969 275.230469 170.242188 266.378906 180.144531 261.578125 C 180.519531 261.351562 180.894531 261.503906 181.195312 261.726562 C 189.148438 257.675781 198.222656 255.953125 207.527344 257.300781 C 227.253906 260.226562 245.785156 276.503906 248.484375 296.683594 C 249.761719 306.136719 246.683594 316.636719 238.28125 321.964844 C 228.53125 328.117188 218.027344 322.414062 210.152344 315.964844 C 205.199219 311.914062 200.625 307.710938 194.398438 305.984375 C 188.773438 304.335938 182.546875 304.710938 177.070312 306.960938 Z M 155.839844 301.335938 C 156.441406 308.761719 162.515625 306.660156 167.09375 304.035156 C 174.292969 299.910156 181.347656 296.984375 189.824219 297.660156 C 198.449219 298.335938 205.351562 302.308594 211.878906 307.710938 C 218.554688 313.261719 228.832031 322.039062 236.78125 313.488281 C 243.535156 306.210938 241.582031 295.109375 237.53125 287.007812 C 230.179688 272.453125 215.402344 262.328125 198.824219 262.925781 C 182.546875 263.527344 168.070312 274.628906 160.417969 288.582031 C 160.265625 288.957031 159.890625 289.109375 159.667969 289.183594 C 157.492188 293.007812 155.464844 297.132812 155.839844 301.335938 Z M 155.839844 301.335938 " fill-opacity="1" fill-rule="nonzero"/><path fill="#232c33" d="M 163.34375 213.792969 C 170.84375 218.21875 177.21875 225.34375 178.195312 234.121094 C 179.246094 243.273438 173.167969 252.351562 163.792969 253.777344 C 153.890625 255.277344 145.863281 248.601562 143.164062 239.371094 C 141.738281 234.421875 141.8125 229.097656 142.5625 223.996094 C 143.011719 221.144531 143.6875 218.292969 144.4375 215.441406 C 144.964844 213.417969 145.488281 211.316406 146.914062 209.667969 C 150.441406 205.542969 155.617188 208.691406 159.140625 210.941406 C 160.566406 211.992188 161.992188 212.890625 163.34375 213.792969 Z M 148.414062 240.722656 C 151.488281 247.550781 159.214844 251.75 166.492188 248.523438 C 173.917969 245.222656 175.871094 236.824219 173.167969 229.695312 C 171.667969 225.796875 169.195312 222.792969 166.34375 220.09375 C 163.492188 218.367188 160.867188 216.191406 158.015625 214.46875 C 156.292969 213.417969 154.117188 211.691406 152.015625 211.390625 C 149.390625 211.09375 148.941406 214.019531 148.488281 215.894531 C 146.839844 223.84375 144.890625 232.996094 148.414062 240.722656 Z M 148.414062 240.722656 " fill-opacity="1" fill-rule="nonzero"/><path fill="#232c33" d="M 54.421875 39.832031 C 52.84375 38.109375 50.519531 37.28125 48.792969 35.707031 C 44.292969 36.308594 40.167969 39.609375 39.492188 44.332031 C 38.894531 48.835938 42.191406 53.9375 46.542969 54.3125 C 46.621094 54.3125 46.769531 54.386719 46.84375 54.386719 C 49.167969 54.460938 51.570312 53.859375 53.144531 52.585938 C 54.945312 51.160156 56.144531 49.285156 56.445312 46.882812 C 56.820312 44.257812 56.144531 41.707031 54.421875 39.832031 Z M 40.992188 34.65625 C 43.542969 32.855469 46.542969 32.179688 49.621094 32.554688 C 52.769531 31.429688 56.519531 33.980469 58.546875 36.308594 C 61.171875 39.234375 62.523438 43.207031 62.070312 47.183594 C 61.246094 54.910156 54.269531 60.835938 46.46875 59.9375 C 46.019531 59.863281 45.644531 59.785156 45.269531 59.5625 C 38.441406 57.6875 34.167969 50.785156 35.292969 43.808594 C 35.96875 40.132812 37.992188 36.832031 40.992188 34.65625 Z M 40.992188 34.65625 " fill-opacity="1" fill-rule="nonzero"/><path fill="#232c33" d="M 128.011719 181.460938 C 122.460938 182.285156 116.910156 182.660156 111.28125 182.511719 C 101.605469 182.210938 92.378906 180.261719 83.453125 176.734375 C 87.050781 182.660156 90.277344 188.8125 93.128906 194.890625 C 96.054688 201.039062 99.203125 207.566406 101.832031 214.242188 C 104.753906 207.640625 108.730469 201.492188 113.308594 195.9375 C 116.234375 192.414062 119.382812 189.113281 122.835938 186.113281 C 124.410156 184.6875 126.058594 183.410156 127.785156 182.0625 C 128.085938 181.835938 128.386719 181.609375 128.609375 181.386719 C 128.460938 181.386719 128.234375 181.386719 128.011719 181.460938 Z M 136.789062 176.960938 C 139.1875 176.285156 141.4375 175.308594 143.914062 175.011719 C 146.6875 172.085938 149.390625 169.234375 152.164062 166.308594 C 142.261719 170.660156 131.386719 172.910156 120.660156 173.734375 C 111.132812 174.484375 99.804688 174.335938 90.277344 170.882812 C 84.277344 169.007812 78.351562 165.558594 73.175781 161.882812 C 76.25 165.632812 79.101562 169.683594 81.726562 173.808594 C 91.402344 177.410156 101.679688 179.660156 111.957031 179.886719 C 117.507812 180.035156 123.058594 179.660156 128.535156 178.761719 C 131.3125 178.3125 134.011719 177.636719 136.789062 176.960938 Z M 140.386719 178.835938 C 138.0625 179.660156 135.511719 180.1875 133.035156 180.636719 C 131.835938 181.835938 130.335938 182.660156 128.984375 183.710938 C 127.335938 185.0625 125.683594 186.335938 124.109375 187.761719 C 120.960938 190.613281 117.957031 193.613281 115.257812 196.914062 C 110.230469 202.914062 106.332031 209.59375 102.730469 216.566406 C 103.929688 219.644531 104.90625 222.792969 105.804688 226.019531 C 105.882812 226.09375 105.957031 226.09375 105.957031 226.171875 C 106.105469 225.796875 106.257812 225.34375 106.40625 224.96875 C 109.78125 216.34375 114.65625 208.316406 120.359375 200.964844 C 126.285156 193.3125 133.1875 186.414062 139.863281 179.359375 C 140.085938 179.136719 140.238281 178.984375 140.386719 178.835938 Z M 45.34375 70.140625 C 51.644531 68.5625 58.019531 67.136719 62.972656 62.710938 C 67.847656 58.4375 70.625 52.285156 70.773438 45.757812 C 71.148438 33.082031 61.621094 23.328125 49.46875 21.605469 C 49.246094 21.605469 49.09375 21.679688 48.792969 21.679688 C 35.816406 20.554688 25.238281 32.632812 25.089844 45.085938 C 24.941406 57.238281 33.640625 67.363281 44.96875 70.289062 C 45.195312 70.214844 45.269531 70.140625 45.34375 70.140625 Z M 169.644531 58.363281 C 169.492188 70.589844 178.195312 80.640625 189.523438 83.566406 C 189.597656 83.492188 189.671875 83.417969 189.746094 83.417969 C 196.050781 81.839844 202.425781 80.492188 207.453125 76.066406 C 212.328125 71.789062 215.101562 65.5625 215.253906 59.113281 C 215.628906 46.507812 206.101562 36.757812 193.949219 34.957031 C 193.722656 35.03125 193.574219 35.105469 193.273438 35.03125 C 180.445312 33.90625 169.792969 45.984375 169.644531 58.363281 Z M 301.59375 196.164062 C 301.371094 188.363281 300.769531 180.335938 301.070312 172.460938 C 300.84375 172.382812 300.621094 172.308594 300.46875 172.234375 C 299.71875 172.007812 299.121094 171.558594 298.519531 170.960938 C 298.21875 170.585938 297.917969 170.132812 297.621094 169.683594 C 297.394531 169.234375 297.246094 168.785156 297.019531 168.257812 C 296.71875 167.433594 296.792969 166.683594 296.945312 165.859375 C 296.945312 165.332031 297.09375 164.808594 297.394531 164.359375 C 297.621094 163.609375 298.070312 163.007812 298.667969 162.484375 C 298.746094 162.40625 298.746094 162.40625 298.820312 162.40625 C 299.195312 162.03125 299.570312 161.730469 300.09375 161.433594 C 300.996094 160.90625 302.046875 160.683594 303.171875 160.683594 C 303.996094 160.683594 304.746094 160.832031 305.496094 161.28125 C 306.246094 161.507812 306.847656 161.957031 307.445312 162.558594 C 308.195312 163.308594 308.722656 164.207031 308.945312 165.257812 C 309.023438 165.78125 309.023438 166.308594 309.097656 166.832031 C 309.097656 167.882812 308.796875 168.933594 308.195312 169.832031 C 307.671875 170.734375 306.921875 171.484375 306.019531 171.933594 C 306.019531 172.007812 306.019531 172.007812 306.019531 172.007812 C 305.871094 172.085938 305.796875 172.085938 305.644531 172.160156 C 307.371094 181.6875 307.671875 191.664062 307.972656 201.191406 C 308.121094 204.941406 308.195312 208.617188 308.195312 212.292969 C 317.421875 210.566406 326.273438 207.417969 333.476562 201.113281 C 342.101562 193.464844 347.054688 182.4375 347.355469 170.960938 C 348.105469 148.378906 331 130.902344 309.320312 127.824219 C 309.023438 127.976562 308.648438 128.050781 308.273438 127.976562 C 285.316406 126.175781 266.5625 147.628906 266.414062 169.609375 C 266.1875 191.0625 281.566406 208.839844 301.671875 213.566406 C 301.746094 213.492188 301.894531 213.417969 301.96875 213.34375 C 301.894531 207.714844 301.746094 201.941406 301.59375 196.164062 Z M 308.347656 122.199219 C 333.703125 124.601562 353.878906 145.003906 352.980469 171.109375 C 352.230469 193.089844 334.226562 215.292969 311.871094 216.71875 C 311.722656 217.167969 311.273438 217.617188 310.597656 217.617188 C 309.773438 217.617188 308.945312 217.617188 308.121094 217.542969 C 308.046875 223.84375 307.894531 230.144531 307.445312 236.449219 C 305.046875 271.179688 294.46875 307.335938 269.1875 332.464844 C 257.785156 343.792969 243.382812 352.195312 227.855469 356.320312 C 217.429688 359.097656 205.574219 360.371094 194.847656 357.746094 C 191.25 357.296875 187.648438 356.769531 184.046875 355.945312 C 173.996094 353.769531 164.019531 350.09375 155.089844 344.917969 C 147.738281 340.71875 140.988281 335.542969 134.835938 329.765625 C 129.4375 326.914062 124.558594 320.015625 121.558594 315.886719 C 116.382812 308.6875 112.40625 300.511719 109.632812 292.035156 C 105.054688 278.082031 103.707031 263.378906 103.628906 248.675781 C 102.503906 245.523438 102.355469 242.074219 102.730469 238.472656 C 100.628906 232.773438 99.203125 226.84375 97.253906 220.917969 C 94.554688 212.742188 91.851562 204.566406 88.175781 196.765625 C 80.824219 181.460938 71 167.808594 62.070312 153.40625 C 61.996094 153.253906 61.996094 153.105469 61.996094 152.957031 C 56.222656 147.480469 51.121094 141.253906 47.144531 134.425781 C 41.519531 124.675781 38.21875 113.796875 37.09375 102.695312 C 36.117188 92.71875 36.71875 81.617188 42.269531 72.988281 C 30.117188 69.613281 21.039062 58.363281 20.964844 45.007812 C 20.890625 30.382812 32.816406 16.128906 47.894531 16.203125 C 48.269531 16.054688 48.644531 15.902344 49.09375 15.976562 C 64.621094 17.328125 77 29.929688 76.398438 45.910156 C 76.101562 53.785156 72.722656 61.4375 66.796875 66.6875 C 62.523438 70.515625 56.746094 73.515625 50.96875 73.664062 C 50.746094 73.738281 50.59375 73.816406 50.371094 73.816406 C 48.71875 73.890625 47.070312 73.738281 45.417969 73.441406 C 45.570312 82.964844 44.144531 92.417969 45.042969 101.871094 C 46.019531 111.847656 49.167969 121.675781 54.195312 130.300781 C 59.148438 138.777344 65.972656 146.128906 73.625 152.355469 C 77.523438 155.582031 81.800781 158.355469 86.226562 160.757812 C 89.679688 162.632812 93.429688 163.984375 96.953125 165.707031 C 98.304688 166.007812 99.578125 166.308594 100.929688 166.535156 C 107.679688 167.582031 114.734375 167.660156 121.558594 167.058594 C 134.535156 166.007812 147.664062 162.484375 158.691406 155.507812 C 170.394531 148.078125 178.34375 136.753906 182.695312 123.625 C 186.671875 111.546875 187.273438 98.871094 189.972656 86.566406 C 176.09375 84.617188 165.519531 72.539062 165.441406 58.0625 C 165.367188 43.433594 177.296875 29.179688 192.375 29.253906 C 192.75 29.105469 193.125 28.957031 193.5 29.03125 C 209.027344 30.457031 221.402344 42.984375 220.878906 58.960938 C 220.578125 66.839844 217.203125 74.566406 211.277344 79.816406 C 207 83.566406 201.226562 86.566406 195.375 86.71875 C 195.222656 86.792969 195 86.867188 194.773438 86.867188 C 193.875 86.867188 192.972656 86.867188 192.074219 86.792969 C 197.175781 114.023438 185.398438 146.054688 161.765625 161.058594 C 161.316406 161.355469 160.792969 161.582031 160.265625 161.882812 C 152.164062 176.433594 138.210938 187.835938 127.636719 200.441406 C 121.484375 207.792969 115.933594 215.894531 112.257812 224.746094 C 110.605469 228.796875 109.257812 233.070312 108.28125 237.421875 C 108.132812 238.398438 107.90625 239.371094 107.757812 240.347656 C 107.757812 241.324219 107.832031 242.222656 107.832031 243.199219 C 107.757812 243.574219 107.605469 243.949219 107.230469 244.171875 C 107.15625 245 107.007812 245.75 106.855469 246.574219 C 107.457031 260.453125 108.804688 274.328125 112.859375 287.53125 C 115.40625 295.933594 118.933594 304.109375 123.882812 311.460938 C 124.410156 312.210938 125.011719 312.960938 125.535156 313.710938 C 134.613281 324.289062 145.488281 333.292969 157.941406 339.742188 C 166.941406 344.394531 176.546875 347.996094 186.523438 350.09375 C 189.824219 350.769531 193.125 351.21875 196.425781 351.59375 C 208.875 352.421875 221.027344 352.046875 233.40625 347.542969 C 264.386719 336.292969 284.339844 307.9375 293.644531 277.40625 C 298.894531 260.078125 301.144531 242.222656 301.746094 224.21875 C 301.820312 221.667969 301.746094 219.117188 301.820312 216.566406 C 279.316406 212.667969 262.0625 193.011719 262.0625 169.308594 C 262.0625 145.230469 281.867188 121.597656 306.921875 122.273438 C 307.371094 122.273438 307.820312 122.125 308.347656 122.199219 Z M 308.347656 122.199219 " fill-opacity="1" fill-rule="nonzero"/></svg>