<?xml version="1.0"?>
<svg width="512" height="512" xmlns="http://www.w3.org/2000/svg" xmlns:svg="http://www.w3.org/2000/svg" enable-background="new 0 0 512 512" version="1.1" xml:space="preserve">
 <g class="layer">
  <title>Layer 1</title>
  <g id="svg_1">
   <path d="m256,0l8.29,0.03l8.14,0.1l15.77,0.44l7.65,0.33l14.82,0.87l14.16,1.18c122.5,11.88 172.34,61.72 184.22,184.22l1.18,14.16l0.87,14.82c0.13,2.51 0.26,5.07 0.33,7.65l0.44,15.77l0.13,16.43l-0.13,16.44l-0.44,15.77l-0.33,7.65l-0.87,14.82l-1.18,14.16c-11.88,122.5 -61.72,172.34 -184.22,184.22l-14.16,1.18l-14.82,0.87c-2.51,0.13 -5.07,0.26 -7.65,0.33l-15.77,0.44l-16.43,0.12l-16.44,-0.13l-15.77,-0.44l-7.65,-0.33l-14.82,-0.87l-14.16,-1.18c-122.49,-11.87 -172.34,-61.72 -184.22,-184.21l-1.18,-14.16l-0.86,-14.82c-0.12,-2.55 -0.24,-5.1 -0.33,-7.65l-0.44,-15.77c-0.08,-5.38 -0.13,-10.86 -0.13,-16.44l0.03,-8.29l0.1,-8.14l0.44,-15.77l0.33,-7.65l0.87,-14.82l1.18,-14.16c11.87,-122.5 61.72,-172.35 184.21,-184.23l14.16,-1.18l14.82,-0.87c2.51,-0.13 5.07,-0.26 7.65,-0.33l15.77,-0.44c5.38,-0.07 10.86,-0.12 16.44,-0.12zm0,153.6c-14.14,0 -25.6,11.46 -25.6,25.6l0,51.2l-51.2,0l-3,0.18c-14.04,1.67 -24.07,14.4 -22.4,28.44c1.53,12.87 12.43,22.56 25.39,22.58l51.2,0l0,51.2l0.18,3c1.67,14.04 14.4,24.07 28.44,22.4c12.87,-1.53 22.56,-12.43 22.58,-25.39l0,-51.2l51.2,0l3,-0.18c14.04,-1.67 24.07,-14.4 22.4,-28.44c-1.53,-12.87 -12.43,-22.56 -25.39,-22.58l-51.2,0l0,-51.2l-0.18,-3c-1.52,-12.89 -12.44,-22.61 -25.42,-22.61z" fill="#2b364a" id="svg_2"/>
  </g>
 </g>
</svg>