<svg xmlns="http://www.w3.org/2000/svg" xmlns:xlink="http://www.w3.org/1999/xlink" width="500" zoomAndPan="magnify" viewBox="0 0 375 374.999991" height="500" preserveAspectRatio="xMidYMid meet" version="1.0"><defs><clipPath id="07ff25f69d"><path d="M 375.011719 187.5 C 375.011719 291.0625 291.0625 375.011719 187.5 375.011719 C 83.941406 375.011719 -0.0117188 291.0625 -0.0117188 187.5 C -0.0117188 83.9375 83.941406 -0.0117188 187.5 -0.0117188 C 291.0625 -0.0117188 375.011719 83.9375 375.011719 187.5 " clip-rule="nonzero"/></clipPath><clipPath id="002aa26cf7"><path d="M 259 293 L 287 293 L 287 375 L 259 375 Z M 259 293 " clip-rule="nonzero"/></clipPath><clipPath id="4b93517ab8"><path d="M 375.011719 187.5 C 375.011719 291.0625 291.0625 375.011719 187.5 375.011719 C 83.941406 375.011719 -0.0117188 291.0625 -0.0117188 187.5 C -0.0117188 83.9375 83.941406 -0.0117188 187.5 -0.0117188 C 291.0625 -0.0117188 375.011719 83.9375 375.011719 187.5 " clip-rule="nonzero"/></clipPath><clipPath id="822e4cf0ad"><path d="M 259 313 L 263 313 L 263 316.644531 L 259 316.644531 Z M 259 313 " clip-rule="nonzero"/></clipPath><clipPath id="b1fc1e6f44"><path d="M 375.011719 187.5 C 375.011719 291.0625 291.0625 375.011719 187.5 375.011719 C 83.941406 375.011719 -0.0117188 291.0625 -0.0117188 187.5 C -0.0117188 83.9375 83.941406 -0.0117188 187.5 -0.0117188 C 291.0625 -0.0117188 375.011719 83.9375 375.011719 187.5 " clip-rule="nonzero"/></clipPath><clipPath id="8aacc845a2"><path d="M 259 306 L 286 306 L 286 360.273438 L 259 360.273438 Z M 259 306 " clip-rule="nonzero"/></clipPath><clipPath id="34cbd5a5ba"><path d="M 375.011719 187.5 C 375.011719 291.0625 291.0625 375.011719 187.5 375.011719 C 83.941406 375.011719 -0.0117188 291.0625 -0.0117188 187.5 C -0.0117188 83.9375 83.941406 -0.0117188 187.5 -0.0117188 C 291.0625 -0.0117188 375.011719 83.9375 375.011719 187.5 " clip-rule="nonzero"/></clipPath><clipPath id="c662013f38"><path d="M 246 246 L 295.921875 246 L 295.921875 338.460938 L 246 338.460938 Z M 246 246 " clip-rule="nonzero"/></clipPath><clipPath id="5f74268c21"><path d="M 375.011719 187.5 C 375.011719 291.0625 291.0625 375.011719 187.5 375.011719 C 83.941406 375.011719 -0.0117188 291.0625 -0.0117188 187.5 C -0.0117188 83.9375 83.941406 -0.0117188 187.5 -0.0117188 C 291.0625 -0.0117188 375.011719 83.9375 375.011719 187.5 " clip-rule="nonzero"/></clipPath><clipPath id="b992a68ea3"><path d="M 246 261.015625 L 268 261.015625 L 268 338.460938 L 246 338.460938 Z M 246 261.015625 " clip-rule="nonzero"/></clipPath><clipPath id="cc8c9447d3"><path d="M 375.011719 187.5 C 375.011719 291.0625 291.0625 375.011719 187.5 375.011719 C 83.941406 375.011719 -0.0117188 291.0625 -0.0117188 187.5 C -0.0117188 83.9375 83.941406 -0.0117188 187.5 -0.0117188 C 291.0625 -0.0117188 375.011719 83.9375 375.011719 187.5 " clip-rule="nonzero"/></clipPath><clipPath id="c6a908812e"><path d="M 89 293 L 117 293 L 117 375 L 89 375 Z M 89 293 " clip-rule="nonzero"/></clipPath><clipPath id="3ef07bb4b4"><path d="M 375.011719 187.5 C 375.011719 291.0625 291.0625 375.011719 187.5 375.011719 C 83.941406 375.011719 -0.0117188 291.0625 -0.0117188 187.5 C -0.0117188 83.9375 83.941406 -0.0117188 187.5 -0.0117188 C 291.0625 -0.0117188 375.011719 83.9375 375.011719 187.5 " clip-rule="nonzero"/></clipPath><clipPath id="9a00336400"><path d="M 90 306 L 93 306 L 93 342.824219 L 90 342.824219 Z M 90 306 " clip-rule="nonzero"/></clipPath><clipPath id="f523fd3629"><path d="M 375.011719 187.5 C 375.011719 291.0625 291.0625 375.011719 187.5 375.011719 C 83.941406 375.011719 -0.0117188 291.0625 -0.0117188 187.5 C -0.0117188 83.9375 83.941406 -0.0117188 187.5 -0.0117188 C 291.0625 -0.0117188 375.011719 83.9375 375.011719 187.5 " clip-rule="nonzero"/></clipPath><clipPath id="b61635a340"><path d="M 90 306 L 117 306 L 117 361 L 90 361 Z M 90 306 " clip-rule="nonzero"/></clipPath><clipPath id="33edc880e7"><path d="M 375.011719 187.5 C 375.011719 291.0625 291.0625 375.011719 187.5 375.011719 C 83.941406 375.011719 -0.0117188 291.0625 -0.0117188 187.5 C -0.0117188 83.9375 83.941406 -0.0117188 187.5 -0.0117188 C 291.0625 -0.0117188 375.011719 83.9375 375.011719 187.5 " clip-rule="nonzero"/></clipPath><clipPath id="aea6cf040e"><path d="M 79 246 L 129 246 L 129 338.460938 L 79 338.460938 Z M 79 246 " clip-rule="nonzero"/></clipPath><clipPath id="e84cfb6de0"><path d="M 375.011719 187.5 C 375.011719 291.0625 291.0625 375.011719 187.5 375.011719 C 83.941406 375.011719 -0.0117188 291.0625 -0.0117188 187.5 C -0.0117188 83.9375 83.941406 -0.0117188 187.5 -0.0117188 C 291.0625 -0.0117188 375.011719 83.9375 375.011719 187.5 " clip-rule="nonzero"/></clipPath><clipPath id="3498551018"><path d="M 102 251.199219 L 129 251.199219 L 129 338.460938 L 102 338.460938 Z M 102 251.199219 " clip-rule="nonzero"/></clipPath><clipPath id="290023f613"><path d="M 375.011719 187.5 C 375.011719 291.0625 291.0625 375.011719 187.5 375.011719 C 83.941406 375.011719 -0.0117188 291.0625 -0.0117188 187.5 C -0.0117188 83.9375 83.941406 -0.0117188 187.5 -0.0117188 C 291.0625 -0.0117188 375.011719 83.9375 375.011719 187.5 " clip-rule="nonzero"/></clipPath><clipPath id="c285c2b193"><path d="M 113 228.292969 L 263 228.292969 L 263 375 L 113 375 Z M 113 228.292969 " clip-rule="nonzero"/></clipPath><clipPath id="98518aabac"><path d="M 375.011719 187.5 C 375.011719 291.0625 291.0625 375.011719 187.5 375.011719 C 83.941406 375.011719 -0.0117188 291.0625 -0.0117188 187.5 C -0.0117188 83.9375 83.941406 -0.0117188 187.5 -0.0117188 C 291.0625 -0.0117188 375.011719 83.9375 375.011719 187.5 " clip-rule="nonzero"/></clipPath><clipPath id="96e5466875"><path d="M 162 196.664062 L 215 196.664062 L 215 244 L 162 244 Z M 162 196.664062 " clip-rule="nonzero"/></clipPath><clipPath id="d09ce36884"><path d="M 375.011719 187.5 C 375.011719 291.0625 291.0625 375.011719 187.5 375.011719 C 83.941406 375.011719 -0.0117188 291.0625 -0.0117188 187.5 C -0.0117188 83.9375 83.941406 -0.0117188 187.5 -0.0117188 C 291.0625 -0.0117188 375.011719 83.9375 375.011719 187.5 " clip-rule="nonzero"/></clipPath><clipPath id="1a54d95c16"><path d="M 208.660156 207 L 211.933594 207 L 211.933594 222.839844 L 208.660156 222.839844 Z M 208.660156 207 " clip-rule="nonzero"/></clipPath><clipPath id="ceebf014b7"><path d="M 375.011719 187.5 C 375.011719 291.0625 291.0625 375.011719 187.5 375.011719 C 83.941406 375.011719 -0.0117188 291.0625 -0.0117188 187.5 C -0.0117188 83.9375 83.941406 -0.0117188 187.5 -0.0117188 C 291.0625 -0.0117188 375.011719 83.9375 375.011719 187.5 " clip-rule="nonzero"/></clipPath><clipPath id="00c94209c7"><path d="M 167 207 L 211.933594 207 L 211.933594 222.839844 L 167 222.839844 Z M 167 207 " clip-rule="nonzero"/></clipPath><clipPath id="a0fcdd97d9"><path d="M 375.011719 187.5 C 375.011719 291.0625 291.0625 375.011719 187.5 375.011719 C 83.941406 375.011719 -0.0117188 291.0625 -0.0117188 187.5 C -0.0117188 83.9375 83.941406 -0.0117188 187.5 -0.0117188 C 291.0625 -0.0117188 375.011719 83.9375 375.011719 187.5 " clip-rule="nonzero"/></clipPath><clipPath id="6a7adbf4a2"><path d="M 232 130.125 L 252.289062 130.125 L 252.289062 162.847656 L 232 162.847656 Z M 232 130.125 " clip-rule="nonzero"/></clipPath><clipPath id="2bfbdc659e"><path d="M 375.011719 187.5 C 375.011719 291.0625 291.0625 375.011719 187.5 375.011719 C 83.941406 375.011719 -0.0117188 291.0625 -0.0117188 187.5 C -0.0117188 83.9375 83.941406 -0.0117188 187.5 -0.0117188 C 291.0625 -0.0117188 375.011719 83.9375 375.011719 187.5 " clip-rule="nonzero"/></clipPath><clipPath id="c96996ccc0"><path d="M 239 136.671875 L 249 136.671875 L 249 158 L 239 158 Z M 239 136.671875 " clip-rule="nonzero"/></clipPath><clipPath id="73f348536e"><path d="M 375.011719 187.5 C 375.011719 291.0625 291.0625 375.011719 187.5 375.011719 C 83.941406 375.011719 -0.0117188 291.0625 -0.0117188 187.5 C -0.0117188 83.9375 83.941406 -0.0117188 187.5 -0.0117188 C 291.0625 -0.0117188 375.011719 83.9375 375.011719 187.5 " clip-rule="nonzero"/></clipPath><clipPath id="5c5f5de78e"><path d="M 237.019531 136 L 249 136 L 249 158 L 237.019531 158 Z M 237.019531 136 " clip-rule="nonzero"/></clipPath><clipPath id="f1bb5857a9"><path d="M 375.011719 187.5 C 375.011719 291.0625 291.0625 375.011719 187.5 375.011719 C 83.941406 375.011719 -0.0117188 291.0625 -0.0117188 187.5 C -0.0117188 83.9375 83.941406 -0.0117188 187.5 -0.0117188 C 291.0625 -0.0117188 375.011719 83.9375 375.011719 187.5 " clip-rule="nonzero"/></clipPath><clipPath id="a39e115444"><path d="M 239.203125 138 L 246.835938 138 L 246.835938 147.578125 L 239.203125 147.578125 Z M 239.203125 138 " clip-rule="nonzero"/></clipPath><clipPath id="e977e4bc14"><path d="M 375.011719 187.5 C 375.011719 291.0625 291.0625 375.011719 187.5 375.011719 C 83.941406 375.011719 -0.0117188 291.0625 -0.0117188 187.5 C -0.0117188 83.9375 83.941406 -0.0117188 187.5 -0.0117188 C 291.0625 -0.0117188 375.011719 83.9375 375.011719 187.5 " clip-rule="nonzero"/></clipPath><clipPath id="3cca9a8791"><path d="M 124 130.125 L 144.304688 130.125 L 144.304688 162.847656 L 124 162.847656 Z M 124 130.125 " clip-rule="nonzero"/></clipPath><clipPath id="26dc8fab73"><path d="M 375.011719 187.5 C 375.011719 291.0625 291.0625 375.011719 187.5 375.011719 C 83.941406 375.011719 -0.0117188 291.0625 -0.0117188 187.5 C -0.0117188 83.9375 83.941406 -0.0117188 187.5 -0.0117188 C 291.0625 -0.0117188 375.011719 83.9375 375.011719 187.5 " clip-rule="nonzero"/></clipPath><clipPath id="db5644ca43"><path d="M 128 137 L 137.761719 137 L 137.761719 157.394531 L 128 157.394531 Z M 128 137 " clip-rule="nonzero"/></clipPath><clipPath id="235a045d52"><path d="M 375.011719 187.5 C 375.011719 291.0625 291.0625 375.011719 187.5 375.011719 C 83.941406 375.011719 -0.0117188 291.0625 -0.0117188 187.5 C -0.0117188 83.9375 83.941406 -0.0117188 187.5 -0.0117188 C 291.0625 -0.0117188 375.011719 83.9375 375.011719 187.5 " clip-rule="nonzero"/></clipPath><clipPath id="095f56972c"><path d="M 128 136 L 139.941406 136 L 139.941406 158 L 128 158 Z M 128 136 " clip-rule="nonzero"/></clipPath><clipPath id="88bc234e9e"><path d="M 375.011719 187.5 C 375.011719 291.0625 291.0625 375.011719 187.5 375.011719 C 83.941406 375.011719 -0.0117188 291.0625 -0.0117188 187.5 C -0.0117188 83.9375 83.941406 -0.0117188 187.5 -0.0117188 C 291.0625 -0.0117188 375.011719 83.9375 375.011719 187.5 " clip-rule="nonzero"/></clipPath><clipPath id="63682d423b"><path d="M 130.125 138 L 137.761719 138 L 137.761719 147.578125 L 130.125 147.578125 Z M 130.125 138 " clip-rule="nonzero"/></clipPath><clipPath id="139dc07dc2"><path d="M 375.011719 187.5 C 375.011719 291.0625 291.0625 375.011719 187.5 375.011719 C 83.941406 375.011719 -0.0117188 291.0625 -0.0117188 187.5 C -0.0117188 83.9375 83.941406 -0.0117188 187.5 -0.0117188 C 291.0625 -0.0117188 375.011719 83.9375 375.011719 187.5 " clip-rule="nonzero"/></clipPath><clipPath id="83522b85cb"><path d="M 137 80 L 240 80 L 240 216 L 137 216 Z M 137 80 " clip-rule="nonzero"/></clipPath><clipPath id="d62c4beb66"><path d="M 375.011719 187.5 C 375.011719 291.0625 291.0625 375.011719 187.5 375.011719 C 83.941406 375.011719 -0.0117188 291.0625 -0.0117188 187.5 C -0.0117188 83.9375 83.941406 -0.0117188 187.5 -0.0117188 C 291.0625 -0.0117188 375.011719 83.9375 375.011719 187.5 " clip-rule="nonzero"/></clipPath><clipPath id="b616bd42e9"><path d="M 149 94 L 231.566406 94 L 231.566406 113 L 149 113 Z M 149 94 " clip-rule="nonzero"/></clipPath><clipPath id="1100840fbd"><path d="M 375.011719 187.5 C 375.011719 291.0625 291.0625 375.011719 187.5 375.011719 C 83.941406 375.011719 -0.0117188 291.0625 -0.0117188 187.5 C -0.0117188 83.9375 83.941406 -0.0117188 187.5 -0.0117188 C 291.0625 -0.0117188 375.011719 83.9375 375.011719 187.5 " clip-rule="nonzero"/></clipPath><clipPath id="e2696d08c2"><path d="M 188 215.203125 L 190 215.203125 L 190 216 L 188 216 Z M 188 215.203125 " clip-rule="nonzero"/></clipPath><clipPath id="17ce9bdb9e"><path d="M 375.011719 187.5 C 375.011719 291.0625 291.0625 375.011719 187.5 375.011719 C 83.941406 375.011719 -0.0117188 291.0625 -0.0117188 187.5 C -0.0117188 83.9375 83.941406 -0.0117188 187.5 -0.0117188 C 291.0625 -0.0117188 375.011719 83.9375 375.011719 187.5 " clip-rule="nonzero"/></clipPath><clipPath id="255a96f392"><path d="M 137 100.675781 L 225 100.675781 L 225 216 L 137 216 Z M 137 100.675781 " clip-rule="nonzero"/></clipPath><clipPath id="f3ca9c8627"><path d="M 375.011719 187.5 C 375.011719 291.0625 291.0625 375.011719 187.5 375.011719 C 83.941406 375.011719 -0.0117188 291.0625 -0.0117188 187.5 C -0.0117188 83.9375 83.941406 -0.0117188 187.5 -0.0117188 C 291.0625 -0.0117188 375.011719 83.9375 375.011719 187.5 " clip-rule="nonzero"/></clipPath><clipPath id="1b8f2171d2"><path d="M 149 93.039062 L 154 93.039062 L 154 101.765625 L 149 101.765625 Z M 149 93.039062 " clip-rule="nonzero"/></clipPath><clipPath id="c87ba19032"><path d="M 375.011719 187.5 C 375.011719 291.0625 291.0625 375.011719 187.5 375.011719 C 83.941406 375.011719 -0.0117188 291.0625 -0.0117188 187.5 C -0.0117188 83.9375 83.941406 -0.0117188 187.5 -0.0117188 C 291.0625 -0.0117188 375.011719 83.9375 375.011719 187.5 " clip-rule="nonzero"/></clipPath><clipPath id="3b671ef25f"><path d="M 149 119.21875 L 178 119.21875 L 178 127.945312 L 149 127.945312 Z M 149 119.21875 " clip-rule="nonzero"/></clipPath><clipPath id="698ce8c090"><path d="M 375.011719 187.5 C 375.011719 291.0625 291.0625 375.011719 187.5 375.011719 C 83.941406 375.011719 -0.0117188 291.0625 -0.0117188 187.5 C -0.0117188 83.9375 83.941406 -0.0117188 187.5 -0.0117188 C 291.0625 -0.0117188 375.011719 83.9375 375.011719 187.5 " clip-rule="nonzero"/></clipPath><clipPath id="88dc0aebd2"><path d="M 197 119.21875 L 226 119.21875 L 226 127.945312 L 197 127.945312 Z M 197 119.21875 " clip-rule="nonzero"/></clipPath><clipPath id="dc5e9b552e"><path d="M 375.011719 187.5 C 375.011719 291.0625 291.0625 375.011719 187.5 375.011719 C 83.941406 375.011719 -0.0117188 291.0625 -0.0117188 187.5 C -0.0117188 83.9375 83.941406 -0.0117188 187.5 -0.0117188 C 291.0625 -0.0117188 375.011719 83.9375 375.011719 187.5 " clip-rule="nonzero"/></clipPath><clipPath id="88329c818c"><path d="M 179 159.578125 L 197.753906 159.578125 L 197.753906 168 L 179 168 Z M 179 159.578125 " clip-rule="nonzero"/></clipPath><clipPath id="7d45b8bb90"><path d="M 375.011719 187.5 C 375.011719 291.0625 291.0625 375.011719 187.5 375.011719 C 83.941406 375.011719 -0.0117188 291.0625 -0.0117188 187.5 C -0.0117188 83.9375 83.941406 -0.0117188 187.5 -0.0117188 C 291.0625 -0.0117188 375.011719 83.9375 375.011719 187.5 " clip-rule="nonzero"/></clipPath><clipPath id="0308b4143b"><path d="M 167.210938 176 L 209.75 176 L 209.75 190 L 167.210938 190 Z M 167.210938 176 " clip-rule="nonzero"/></clipPath><clipPath id="1f784114a8"><path d="M 375.011719 187.5 C 375.011719 291.0625 291.0625 375.011719 187.5 375.011719 C 83.941406 375.011719 -0.0117188 291.0625 -0.0117188 187.5 C -0.0117188 83.9375 83.941406 -0.0117188 187.5 -0.0117188 C 291.0625 -0.0117188 375.011719 83.9375 375.011719 187.5 " clip-rule="nonzero"/></clipPath><clipPath id="477eb23ea0"><path d="M 167.210938 176 L 209.75 176 L 209.75 184 L 167.210938 184 Z M 167.210938 176 " clip-rule="nonzero"/></clipPath><clipPath id="49cd7ba61d"><path d="M 375.011719 187.5 C 375.011719 291.0625 291.0625 375.011719 187.5 375.011719 C 83.941406 375.011719 -0.0117188 291.0625 -0.0117188 187.5 C -0.0117188 83.9375 83.941406 -0.0117188 187.5 -0.0117188 C 291.0625 -0.0117188 375.011719 83.9375 375.011719 187.5 " clip-rule="nonzero"/></clipPath><clipPath id="ff6afc9ebd"><path d="M 182 194.480469 L 194.480469 194.480469 L 194.480469 198.84375 L 182 198.84375 Z M 182 194.480469 " clip-rule="nonzero"/></clipPath><clipPath id="b7887edc6b"><path d="M 375.011719 187.5 C 375.011719 291.0625 291.0625 375.011719 187.5 375.011719 C 83.941406 375.011719 -0.0117188 291.0625 -0.0117188 187.5 C -0.0117188 83.9375 83.941406 -0.0117188 187.5 -0.0117188 C 291.0625 -0.0117188 375.011719 83.9375 375.011719 187.5 " clip-rule="nonzero"/></clipPath><clipPath id="37eb7ea3b4"><path d="M 179.210938 163 L 197.753906 163 L 197.753906 171.574219 L 179.210938 171.574219 Z M 179.210938 163 " clip-rule="nonzero"/></clipPath><clipPath id="e15e9c0a8a"><path d="M 375.011719 187.5 C 375.011719 291.0625 291.0625 375.011719 187.5 375.011719 C 83.941406 375.011719 -0.0117188 291.0625 -0.0117188 187.5 C -0.0117188 83.9375 83.941406 -0.0117188 187.5 -0.0117188 C 291.0625 -0.0117188 375.011719 83.9375 375.011719 187.5 " clip-rule="nonzero"/></clipPath><clipPath id="eed9d05e7a"><path d="M 167.210938 176 L 173.757812 176 L 173.757812 183.574219 L 167.210938 183.574219 Z M 167.210938 176 " clip-rule="nonzero"/></clipPath><clipPath id="e14a1511c5"><path d="M 375.011719 187.5 C 375.011719 291.0625 291.0625 375.011719 187.5 375.011719 C 83.941406 375.011719 -0.0117188 291.0625 -0.0117188 187.5 C -0.0117188 83.9375 83.941406 -0.0117188 187.5 -0.0117188 C 291.0625 -0.0117188 375.011719 83.9375 375.011719 187.5 " clip-rule="nonzero"/></clipPath><clipPath id="2378659b94"><path d="M 203.207031 176 L 209.75 176 L 209.75 183.574219 L 203.207031 183.574219 Z M 203.207031 176 " clip-rule="nonzero"/></clipPath><clipPath id="c7935ad354"><path d="M 375.011719 187.5 C 375.011719 291.0625 291.0625 375.011719 187.5 375.011719 C 83.941406 375.011719 -0.0117188 291.0625 -0.0117188 187.5 C -0.0117188 83.9375 83.941406 -0.0117188 187.5 -0.0117188 C 291.0625 -0.0117188 375.011719 83.9375 375.011719 187.5 " clip-rule="nonzero"/></clipPath><clipPath id="164bca014c"><path d="M 131 42.867188 L 253.382812 42.867188 L 253.382812 137 L 131 137 Z M 131 42.867188 " clip-rule="nonzero"/></clipPath><clipPath id="7ea871444f"><path d="M 375.011719 187.5 C 375.011719 291.0625 291.0625 375.011719 187.5 375.011719 C 83.941406 375.011719 -0.0117188 291.0625 -0.0117188 187.5 C -0.0117188 83.9375 83.941406 -0.0117188 187.5 -0.0117188 C 291.0625 -0.0117188 375.011719 83.9375 375.011719 187.5 " clip-rule="nonzero"/></clipPath><clipPath id="facb708d96"><path d="M 133 71.226562 L 228 71.226562 L 228 94 L 133 94 Z M 133 71.226562 " clip-rule="nonzero"/></clipPath><clipPath id="df6675a035"><path d="M 375.011719 187.5 C 375.011719 291.0625 291.0625 375.011719 187.5 375.011719 C 83.941406 375.011719 -0.0117188 291.0625 -0.0117188 187.5 C -0.0117188 83.9375 83.941406 -0.0117188 187.5 -0.0117188 C 291.0625 -0.0117188 375.011719 83.9375 375.011719 187.5 " clip-rule="nonzero"/></clipPath><clipPath id="6eb11a5be9"><path d="M 124 349 L 247.925781 349 L 247.925781 375 L 124 375 Z M 124 349 " clip-rule="nonzero"/></clipPath><clipPath id="b1c60f1b57"><path d="M 375.011719 187.5 C 375.011719 291.0625 291.0625 375.011719 187.5 375.011719 C 83.941406 375.011719 -0.0117188 291.0625 -0.0117188 187.5 C -0.0117188 83.9375 83.941406 -0.0117188 187.5 -0.0117188 C 291.0625 -0.0117188 375.011719 83.9375 375.011719 187.5 " clip-rule="nonzero"/></clipPath><clipPath id="c59cf6384f"><path d="M 165.03125 139 L 174.847656 139 L 174.847656 156 L 165.03125 156 Z M 165.03125 139 " clip-rule="nonzero"/></clipPath><clipPath id="7503845f8e"><path d="M 375.011719 187.5 C 375.011719 291.0625 291.0625 375.011719 187.5 375.011719 C 83.941406 375.011719 -0.0117188 291.0625 -0.0117188 187.5 C -0.0117188 83.9375 83.941406 -0.0117188 187.5 -0.0117188 C 291.0625 -0.0117188 375.011719 83.9375 375.011719 187.5 " clip-rule="nonzero"/></clipPath><clipPath id="92336e6ed6"><path d="M 201.023438 139 L 210.84375 139 L 210.84375 156 L 201.023438 156 Z M 201.023438 139 " clip-rule="nonzero"/></clipPath><clipPath id="e7032b1b67"><path d="M 375.011719 187.5 C 375.011719 291.0625 291.0625 375.011719 187.5 375.011719 C 83.941406 375.011719 -0.0117188 291.0625 -0.0117188 187.5 C -0.0117188 83.9375 83.941406 -0.0117188 187.5 -0.0117188 C 291.0625 -0.0117188 375.011719 83.9375 375.011719 187.5 " clip-rule="nonzero"/></clipPath></defs><g clip-path="url(#07ff25f69d)"><path fill="#82d7f6" d="M 375.011719 187.5 C 375.011719 291.0625 291.0625 375.011719 187.5 375.011719 C 83.941406 375.011719 -0.0117188 291.0625 -0.0117188 187.5 C -0.0117188 83.9375 83.941406 -0.0117188 187.5 -0.0117188 C 291.0625 -0.0117188 375.011719 83.9375 375.011719 187.5 " fill-opacity="1" fill-rule="nonzero"/></g><g clip-path="url(#002aa26cf7)"><g clip-path="url(#4b93517ab8)"><path fill="#f0a176" d="M 280.410156 392.308594 C 283.214844 345.460938 286.144531 293.496094 286.144531 293.496094 L 259.132812 316.425781 C 259.617188 324.601562 260.679688 358.855469 261.65625 392.308594 L 280.410156 392.308594 " fill-opacity="1" fill-rule="nonzero"/></g></g><g clip-path="url(#822e4cf0ad)"><g clip-path="url(#b1fc1e6f44)"><path fill="#b7977b" d="M 259.132812 316.425781 L 262.886719 313.242188 L 259.132812 316.425781 " fill-opacity="1" fill-rule="nonzero"/></g></g><g clip-path="url(#8aacc845a2)"><g clip-path="url(#34cbd5a5ba)"><path fill="#d6855a" d="M 260.691406 360.191406 C 260.046875 339.253906 259.457031 321.929688 259.132812 316.425781 L 262.886719 313.242188 L 285.429688 306.125 C 284.882812 315.761719 284.058594 330.121094 283.117188 346.339844 C 278.578125 349.027344 273.519531 351.261719 268.773438 351.671875 L 268.648438 356.59375 C 266.027344 357.855469 263.382812 359.050781 260.691406 360.191406 " fill-opacity="1" fill-rule="nonzero"/></g></g><g clip-path="url(#c662013f38)"><g clip-path="url(#5f74268c21)"><path fill="#3583b0" d="M 259.234375 246.277344 C 259.234375 246.277344 274.394531 251.34375 280.578125 264.066406 C 286.753906 276.792969 295.847656 323.335938 295.847656 323.335938 C 295.847656 323.335938 285.664062 344.058594 254.761719 336.785156 C 254.761719 336.785156 232.804688 247.398438 259.234375 246.277344 " fill-opacity="1" fill-rule="nonzero"/></g></g><g clip-path="url(#b992a68ea3)"><g clip-path="url(#cc8c9447d3)"><path fill="#337393" d="M 247.21875 261.832031 C 242.710938 287.710938 254.761719 336.785156 254.761719 336.785156 C 257.8125 337.5 260.65625 337.9375 263.3125 338.15625 C 266.917969 321.324219 276.527344 265.777344 247.21875 261.832031 " fill-opacity="1" fill-rule="nonzero"/></g></g><g clip-path="url(#c6a908812e)"><g clip-path="url(#3ef07bb4b4)"><path fill="#f0a176" d="M 114.171875 392.308594 C 115.144531 358.855469 116.207031 324.601562 116.695312 316.425781 L 89.679688 293.496094 C 89.679688 293.496094 92.609375 345.460938 95.410156 392.308594 L 114.171875 392.308594 " fill-opacity="1" fill-rule="nonzero"/></g></g><g clip-path="url(#9a00336400)"><g clip-path="url(#f523fd3629)"><path fill="#b7977b" d="M 92.5 342.757812 C 91.644531 328.011719 90.902344 315.046875 90.394531 306.125 C 90.902344 315.050781 91.644531 328.011719 92.5 342.757812 " fill-opacity="1" fill-rule="nonzero"/></g></g><g clip-path="url(#b61635a340)"><g clip-path="url(#33edc880e7)"><path fill="#d6855a" d="M 115.121094 360.535156 C 112.445312 359.414062 109.796875 358.234375 107.1875 356.988281 L 107.046875 351.671875 C 102.308594 351.261719 97.246094 349.027344 92.703125 346.339844 C 92.636719 345.132812 92.566406 343.9375 92.5 342.757812 C 91.644531 328.011719 90.902344 315.050781 90.394531 306.125 L 112.9375 313.242188 L 116.695312 316.425781 C 116.363281 321.957031 115.773438 339.441406 115.121094 360.535156 " fill-opacity="1" fill-rule="nonzero"/></g></g><g clip-path="url(#aea6cf040e)"><g clip-path="url(#e84cfb6de0)"><path fill="#3583b0" d="M 115.769531 246.277344 C 115.769531 246.277344 100.609375 251.34375 94.425781 264.066406 C 88.242188 276.792969 79.15625 323.335938 79.15625 323.335938 C 79.15625 323.335938 89.335938 344.058594 120.242188 336.785156 C 120.242188 336.785156 142.191406 247.398438 115.769531 246.277344 " fill-opacity="1" fill-rule="nonzero"/></g></g><g clip-path="url(#3498551018)"><g clip-path="url(#290023f613)"><path fill="#337393" d="M 120.242188 336.785156 C 120.242188 336.785156 136.296875 271.390625 124.40625 251.773438 C 123.257812 251.851562 122.0625 252.054688 120.785156 252.433594 C 88.917969 261.808594 106.4375 321.527344 111.996094 338.140625 C 114.566406 337.910156 117.304688 337.476562 120.242188 336.785156 " fill-opacity="1" fill-rule="nonzero"/></g></g><g clip-path="url(#c285c2b193)"><g clip-path="url(#98518aabac)"><path fill="#3583b0" d="M 245.328125 392.308594 C 252.714844 338.484375 263.738281 254.8125 262.03125 246.980469 C 262.03125 246.980469 217.992188 232.433594 210.355469 228.800781 L 187.839844 232.347656 L 165.324219 228.800781 C 157.6875 232.433594 113.648438 246.980469 113.648438 246.980469 C 111.933594 254.8125 122.964844 338.484375 130.347656 392.308594 L 245.328125 392.308594 " fill-opacity="1" fill-rule="nonzero"/></g></g><g clip-path="url(#96e5466875)"><g clip-path="url(#d09ce36884)"><path fill="#da8b65" d="M 208.03125 196.808594 L 188.316406 202.535156 L 168.597656 196.808594 C 168.597656 196.808594 167.046875 224.074219 162.410156 230.347656 C 162.410156 230.347656 175.5 243.4375 188.316406 243.980469 C 201.132812 243.4375 214.222656 230.347656 214.222656 230.347656 C 209.585938 224.074219 208.03125 196.808594 208.03125 196.808594 " fill-opacity="1" fill-rule="nonzero"/></g></g><g clip-path="url(#1a54d95c16)"><g clip-path="url(#ceebf014b7)"><path fill="#908475" d="M 211.199219 222.035156 C 210.152344 217.382812 209.40625 211.792969 208.898438 207.058594 L 208.902344 207.054688 C 209.40625 211.792969 210.15625 217.382812 211.199219 222.035156 " fill-opacity="1" fill-rule="nonzero"/></g></g><g clip-path="url(#00c94209c7)"><g clip-path="url(#a0fcdd97d9)"><path fill="#b06749" d="M 202.222656 222.507812 C 182.589844 222.507812 171.125 215.425781 167.09375 212.367188 C 167.339844 210.523438 167.554688 208.703125 167.734375 207 C 175.230469 212.21875 182.742188 215.410156 188.316406 215.410156 C 188.320312 215.410156 188.328125 215.410156 188.335938 215.410156 C 188.339844 215.410156 188.339844 215.410156 188.34375 215.410156 C 188.355469 215.410156 188.359375 215.410156 188.367188 215.410156 C 188.367188 215.410156 188.371094 215.410156 188.371094 215.410156 C 188.378906 215.410156 188.386719 215.410156 188.394531 215.410156 C 188.402344 215.410156 188.402344 215.410156 188.402344 215.410156 C 188.410156 215.410156 188.414062 215.410156 188.421875 215.410156 C 188.425781 215.410156 188.425781 215.410156 188.429688 215.410156 C 188.4375 215.410156 188.441406 215.410156 188.453125 215.410156 C 188.453125 215.410156 188.457031 215.410156 188.457031 215.410156 C 188.464844 215.410156 188.472656 215.410156 188.480469 215.410156 C 188.484375 215.410156 188.484375 215.410156 188.484375 215.410156 C 188.496094 215.410156 188.503906 215.410156 188.507812 215.410156 C 188.511719 215.410156 188.511719 215.410156 188.515625 215.410156 C 188.523438 215.410156 188.53125 215.410156 188.542969 215.410156 C 188.550781 215.410156 188.558594 215.410156 188.566406 215.410156 C 188.566406 215.410156 188.570312 215.410156 188.574219 215.410156 C 188.578125 215.410156 188.589844 215.410156 188.59375 215.410156 C 188.597656 215.410156 188.597656 215.410156 188.601562 215.410156 C 188.609375 215.410156 188.617188 215.410156 188.625 215.410156 C 188.625 215.410156 188.625 215.410156 188.628906 215.410156 C 188.636719 215.410156 188.644531 215.410156 188.652344 215.410156 C 188.652344 215.410156 188.65625 215.410156 188.65625 215.410156 C 188.675781 215.40625 188.691406 215.40625 188.710938 215.40625 C 188.710938 215.40625 188.714844 215.40625 188.714844 215.40625 C 188.722656 215.40625 188.730469 215.40625 188.738281 215.40625 C 188.738281 215.40625 188.742188 215.40625 188.742188 215.40625 C 188.75 215.40625 188.761719 215.40625 188.769531 215.40625 C 188.78125 215.40625 188.789062 215.40625 188.796875 215.40625 C 188.796875 215.40625 188.796875 215.40625 188.800781 215.40625 C 188.808594 215.40625 188.816406 215.40625 188.828125 215.402344 C 188.835938 215.402344 188.847656 215.402344 188.855469 215.402344 C 188.863281 215.402344 188.875 215.402344 188.882812 215.402344 C 188.882812 215.402344 188.886719 215.402344 188.886719 215.402344 C 188.90625 215.402344 188.925781 215.402344 188.941406 215.398438 L 188.945312 215.398438 C 188.972656 215.398438 189 215.398438 189.03125 215.398438 C 189.050781 215.390625 189.070312 215.390625 189.085938 215.390625 L 189.089844 215.390625 C 189.097656 215.390625 189.109375 215.390625 189.117188 215.390625 C 189.117188 215.390625 189.117188 215.390625 189.121094 215.390625 C 189.136719 215.386719 189.15625 215.386719 189.175781 215.386719 C 194.628906 215.085938 201.769531 211.976562 208.898438 207.058594 C 209.40625 211.792969 210.152344 217.382812 211.199219 222.035156 C 208.035156 222.363281 205.042969 222.507812 202.222656 222.507812 " fill-opacity="1" fill-rule="nonzero"/></g></g><g clip-path="url(#6a7adbf4a2)"><g clip-path="url(#2bfbdc659e)"><path fill="#d17a50" d="M 232.601562 145.695312 C 231.941406 154.558594 235.792969 162.074219 241.207031 162.476562 C 246.625 162.878906 251.546875 156.023438 252.210938 147.15625 C 252.871094 138.292969 249.015625 130.78125 243.601562 130.375 C 238.1875 129.96875 233.265625 136.828125 232.601562 145.695312 " fill-opacity="1" fill-rule="nonzero"/></g></g><g clip-path="url(#c96996ccc0)"><g clip-path="url(#73f348536e)"><path fill="#ba6449" d="M 242.304688 157.523438 C 241.117188 157.523438 239.988281 156.371094 239.441406 152.628906 C 239.441406 152.628906 246.070312 150.777344 240.300781 148.199219 L 239.253906 147.800781 C 239.257812 146.917969 239.257812 146.050781 239.257812 145.1875 C 239.257812 143.445312 239.234375 141.671875 239.183594 139.875 C 239.863281 138.125 241.082031 136.769531 243.242188 136.769531 C 243.3125 136.769531 243.386719 136.769531 243.457031 136.773438 C 248.855469 136.996094 248.433594 143.488281 248.5 143.488281 C 248.511719 143.488281 248.535156 143.292969 248.613281 142.824219 C 248.613281 142.824219 248.574219 145.328125 247.210938 145.644531 C 247.210938 145.644531 248.09375 140.511719 243.457031 139.417969 C 243.457031 139.417969 246.570312 141.191406 246.035156 148.757812 C 246.035156 148.757812 245.914062 145.144531 241.414062 144.089844 C 241.414062 144.089844 248.171875 149.78125 242.40625 153.53125 C 242.40625 153.53125 242.515625 155.617188 243.992188 155.617188 C 244.527344 155.617188 245.242188 155.339844 246.207031 154.585938 C 246.207031 154.585938 244.1875 157.523438 242.304688 157.523438 " fill-opacity="1" fill-rule="nonzero"/></g></g><g clip-path="url(#5c5f5de78e)"><g clip-path="url(#f1bb5857a9)"><path fill="#9a4f36" d="M 248.628906 144.277344 C 248.652344 143.292969 248.507812 142.308594 248.222656 141.382812 C 248.082031 140.917969 247.890625 140.472656 247.644531 140.058594 C 247.417969 139.640625 247.140625 139.246094 246.808594 138.90625 C 246.65625 138.726562 246.488281 138.5625 246.296875 138.421875 C 246.117188 138.273438 245.941406 138.109375 245.730469 138.003906 C 245.339844 137.734375 244.902344 137.558594 244.464844 137.378906 C 244.011719 137.253906 243.550781 137.097656 243.097656 137.050781 C 242.621094 136.996094 242.214844 137.015625 241.792969 137.160156 C 240.96875 137.433594 240.347656 138.132812 239.933594 138.953125 C 239.503906 139.777344 239.257812 140.710938 239.074219 141.648438 C 238.898438 142.59375 238.804688 143.554688 238.753906 144.523438 C 238.734375 145.007812 238.71875 145.496094 238.722656 145.980469 L 238.742188 147.453125 L 238.414062 147.019531 C 239.210938 147.261719 239.964844 147.554688 240.714844 147.914062 C 241.089844 148.09375 241.457031 148.292969 241.808594 148.539062 C 242.164062 148.785156 242.511719 149.0625 242.785156 149.484375 C 242.925781 149.6875 243.015625 149.960938 243.042969 150.242188 C 243.042969 150.527344 242.980469 150.824219 242.835938 151.039062 C 242.566406 151.480469 242.191406 151.746094 241.835938 151.988281 C 241.101562 152.429688 240.332031 152.730469 239.554688 152.972656 L 239.800781 152.582031 C 239.921875 153.523438 240.144531 154.492188 240.507812 155.371094 C 240.695312 155.808594 240.925781 156.226562 241.226562 156.570312 C 241.382812 156.734375 241.546875 156.886719 241.738281 156.992188 C 241.917969 157.105469 242.132812 157.15625 242.347656 157.1875 C 242.558594 157.207031 242.78125 157.183594 243.003906 157.132812 C 243.222656 157.058594 243.441406 156.972656 243.648438 156.859375 C 244.066406 156.628906 244.460938 156.332031 244.816406 155.996094 C 245.542969 155.328125 246.175781 154.558594 246.792969 153.773438 C 246.265625 154.617188 245.691406 155.445312 244.996094 156.175781 C 244.652344 156.546875 244.269531 156.886719 243.832031 157.171875 C 243.621094 157.320312 243.378906 157.429688 243.128906 157.527344 C 242.871094 157.609375 242.597656 157.671875 242.3125 157.65625 C 242.035156 157.632812 241.746094 157.570312 241.5 157.429688 C 241.242188 157.304688 241.035156 157.125 240.835938 156.933594 C 240.457031 156.542969 240.1875 156.085938 239.964844 155.617188 C 239.519531 154.675781 239.253906 153.695312 239.074219 152.675781 L 239.023438 152.390625 L 239.320312 152.277344 C 240.050781 152 240.777344 151.707031 241.40625 151.316406 C 241.707031 151.109375 241.988281 150.875 242.128906 150.632812 C 242.214844 150.511719 242.214844 150.398438 242.222656 150.289062 C 242.195312 150.175781 242.175781 150.054688 242.082031 149.929688 C 241.734375 149.417969 241.015625 149.019531 240.339844 148.695312 C 239.644531 148.375 238.898438 148.101562 238.167969 147.890625 L 237.851562 147.800781 L 237.839844 147.453125 C 237.816406 146.996094 237.800781 146.464844 237.8125 145.972656 C 237.816406 145.472656 237.832031 144.976562 237.863281 144.472656 C 237.933594 143.476562 238.042969 142.472656 238.242188 141.484375 C 238.453125 140.496094 238.722656 139.507812 239.222656 138.578125 C 239.46875 138.125 239.765625 137.667969 240.160156 137.292969 C 240.546875 136.914062 241.046875 136.621094 241.578125 136.464844 C 242.09375 136.300781 242.699219 136.308594 243.195312 136.394531 C 243.71875 136.476562 244.191406 136.664062 244.675781 136.824219 C 245.144531 137.039062 245.613281 137.25 246.027344 137.5625 C 246.25 137.695312 246.4375 137.875 246.628906 138.046875 C 246.824219 138.214844 247 138.398438 247.15625 138.601562 C 247.324219 138.796875 247.480469 139 247.605469 139.222656 C 247.738281 139.441406 247.871094 139.65625 247.964844 139.890625 C 248.1875 140.347656 248.355469 140.828125 248.460938 141.316406 C 248.699219 142.285156 248.753906 143.296875 248.628906 144.277344 " fill-opacity="1" fill-rule="nonzero"/></g></g><g clip-path="url(#a39e115444)"><g clip-path="url(#e977e4bc14)"><path fill="#9a4f36" d="M 246.183594 147.53125 C 246.183594 147.53125 246.214844 146.734375 246.054688 145.5625 C 245.976562 144.976562 245.84375 144.296875 245.621094 143.601562 C 245.511719 143.253906 245.390625 142.898438 245.222656 142.554688 C 245.085938 142.195312 244.863281 141.882812 244.675781 141.558594 C 244.449219 141.253906 244.226562 140.949219 243.957031 140.703125 C 243.675781 140.46875 243.425781 140.210938 243.105469 140.070312 C 242.957031 139.984375 242.808594 139.910156 242.667969 139.828125 C 242.511719 139.777344 242.359375 139.730469 242.210938 139.6875 C 242.058594 139.640625 241.914062 139.59375 241.773438 139.550781 C 241.628906 139.539062 241.484375 139.519531 241.347656 139.511719 C 241.078125 139.496094 240.832031 139.4375 240.601562 139.460938 C 240.378906 139.480469 240.179688 139.496094 240.023438 139.511719 C 239.699219 139.539062 239.515625 139.550781 239.515625 139.550781 L 239.390625 138.46875 C 239.390625 138.46875 239.597656 138.46875 239.972656 138.46875 C 240.15625 138.46875 240.382812 138.46875 240.636719 138.46875 C 240.894531 138.464844 241.1875 138.554688 241.503906 138.601562 C 241.660156 138.636719 241.820312 138.664062 241.992188 138.695312 C 242.148438 138.757812 242.320312 138.832031 242.492188 138.894531 C 242.660156 138.96875 242.835938 139.039062 243.015625 139.113281 C 243.175781 139.222656 243.34375 139.328125 243.507812 139.445312 C 243.859375 139.644531 244.132812 139.964844 244.425781 140.253906 C 244.703125 140.5625 244.921875 140.917969 245.140625 141.273438 C 245.316406 141.644531 245.519531 142.003906 245.632812 142.390625 C 245.777344 142.765625 245.871094 143.148438 245.953125 143.515625 C 246.121094 144.25 246.195312 144.949219 246.222656 145.546875 C 246.28125 146.738281 246.183594 147.53125 246.183594 147.53125 " fill-opacity="1" fill-rule="nonzero"/></g></g><g clip-path="url(#3cca9a8791)"><g clip-path="url(#26dc8fab73)"><path fill="#d17a50" d="M 144.226562 145.695312 C 144.886719 154.558594 141.035156 162.074219 135.617188 162.476562 C 130.203125 162.878906 125.277344 156.023438 124.617188 147.15625 C 123.957031 138.292969 127.8125 130.78125 133.222656 130.375 C 138.640625 129.96875 143.5625 136.828125 144.226562 145.695312 " fill-opacity="1" fill-rule="nonzero"/></g></g><g clip-path="url(#db5644ca43)"><g clip-path="url(#235a045d52)"><path fill="#ba6449" d="M 134.332031 157.195312 C 134.164062 157.195312 133.996094 157.167969 133.824219 157.132812 C 133.601562 157.058594 133.386719 156.972656 133.175781 156.859375 C 132.757812 156.628906 132.367188 156.332031 132.011719 155.992188 C 131.589844 155.605469 131.195312 155.179688 130.820312 154.742188 C 131.683594 155.378906 132.335938 155.617188 132.835938 155.617188 C 134.3125 155.617188 134.421875 153.53125 134.421875 153.53125 C 128.65625 149.78125 135.414062 144.089844 135.414062 144.089844 C 130.914062 145.144531 130.785156 148.757812 130.785156 148.757812 C 130.699219 147.449219 130.714844 146.316406 130.804688 145.332031 C 130.886719 144.804688 131.011719 144.207031 131.203125 143.597656 C 131.316406 143.253906 131.433594 142.894531 131.605469 142.554688 C 131.742188 142.195312 131.964844 141.882812 132.148438 141.558594 C 132.375 141.25 132.601562 140.949219 132.871094 140.703125 C 133.152344 140.46875 133.402344 140.210938 133.722656 140.070312 C 133.871094 139.984375 134.011719 139.90625 134.15625 139.828125 C 134.316406 139.777344 134.46875 139.730469 134.617188 139.6875 C 134.765625 139.640625 134.910156 139.59375 135.050781 139.550781 C 135.195312 139.539062 135.339844 139.519531 135.476562 139.511719 C 135.707031 139.5 135.914062 139.453125 136.105469 139.453125 C 136.144531 139.453125 136.183594 139.457031 136.222656 139.460938 C 136.449219 139.480469 136.644531 139.496094 136.804688 139.511719 C 136.957031 139.519531 137.074219 139.53125 137.160156 139.539062 C 137.261719 139.789062 137.351562 140.050781 137.429688 140.308594 C 137.390625 141.957031 137.375 143.589844 137.375 145.1875 C 137.375 145.683594 137.375 146.175781 137.375 146.675781 C 137.375 146.910156 137.375 147.140625 137.375 147.375 C 136.949219 147.535156 136.53125 147.710938 136.113281 147.914062 C 135.738281 148.09375 135.371094 148.292969 135.019531 148.539062 C 134.664062 148.785156 134.316406 149.0625 134.042969 149.484375 C 133.902344 149.6875 133.808594 149.960938 133.78125 150.242188 C 133.777344 150.527344 133.847656 150.824219 133.988281 151.039062 C 134.257812 151.480469 134.628906 151.746094 134.992188 151.988281 C 135.632812 152.375 136.300781 152.652344 136.976562 152.878906 C 136.855469 153.726562 136.640625 154.585938 136.3125 155.371094 C 136.128906 155.808594 135.894531 156.226562 135.597656 156.570312 C 135.445312 156.734375 135.277344 156.886719 135.089844 156.992188 C 134.90625 157.105469 134.695312 157.15625 134.480469 157.1875 C 134.433594 157.191406 134.382812 157.195312 134.332031 157.195312 M 129.617188 145.644531 C 128.585938 145.40625 128.3125 143.90625 128.238281 143.199219 C 128.242188 143.15625 128.246094 143.113281 128.25 143.070312 C 128.296875 143.359375 128.316406 143.488281 128.324219 143.488281 C 128.34375 143.488281 128.320312 142.886719 128.429688 142.039062 C 128.480469 141.816406 128.542969 141.601562 128.605469 141.382812 C 128.746094 140.917969 128.9375 140.472656 129.179688 140.058594 C 129.410156 139.640625 129.6875 139.246094 130.019531 138.90625 C 130.167969 138.726562 130.339844 138.5625 130.53125 138.421875 C 130.710938 138.273438 130.886719 138.109375 131.097656 138.003906 C 131.484375 137.734375 131.925781 137.558594 132.363281 137.378906 C 132.816406 137.253906 133.273438 137.097656 133.730469 137.050781 C 133.890625 137.027344 134.039062 137.019531 134.183594 137.019531 C 134.476562 137.019531 134.753906 137.0625 135.035156 137.160156 C 135.6875 137.378906 136.21875 137.863281 136.617188 138.46875 C 136.488281 138.46875 136.34375 138.46875 136.191406 138.46875 C 136.183594 138.46875 136.179688 138.46875 136.175781 138.46875 C 135.925781 138.46875 135.636719 138.554688 135.324219 138.601562 C 135.167969 138.636719 135.003906 138.664062 134.835938 138.695312 C 134.675781 138.757812 134.507812 138.828125 134.332031 138.894531 C 134.164062 138.96875 133.988281 139.039062 133.8125 139.113281 C 133.660156 139.214844 133.503906 139.316406 133.347656 139.421875 C 128.734375 140.523438 129.617188 145.644531 129.617188 145.644531 M 129.921875 138.3125 C 130.242188 137.945312 130.628906 137.621094 131.09375 137.367188 C 130.992188 137.425781 130.894531 137.492188 130.800781 137.5625 C 130.578125 137.695312 130.390625 137.875 130.199219 138.046875 C 130.101562 138.132812 130.007812 138.21875 129.921875 138.3125 " fill-opacity="1" fill-rule="nonzero"/></g></g><g clip-path="url(#095f56972c)"><g clip-path="url(#88bc234e9e)"><path fill="#9a4f36" d="M 128.195312 144.277344 C 128.074219 143.296875 128.128906 142.285156 128.367188 141.316406 C 128.472656 140.824219 128.640625 140.347656 128.859375 139.890625 C 128.953125 139.65625 129.085938 139.441406 129.222656 139.222656 C 129.347656 139 129.503906 138.796875 129.671875 138.601562 C 129.828125 138.398438 130.003906 138.214844 130.199219 138.046875 C 130.390625 137.875 130.578125 137.695312 130.800781 137.5625 C 131.214844 137.25 131.683594 137.039062 132.148438 136.824219 C 132.636719 136.664062 133.109375 136.476562 133.632812 136.394531 C 134.128906 136.308594 134.730469 136.300781 135.246094 136.464844 C 135.78125 136.621094 136.277344 136.914062 136.667969 137.292969 C 137.0625 137.667969 137.355469 138.125 137.605469 138.578125 C 138.101562 139.507812 138.375 140.496094 138.585938 141.484375 C 138.785156 142.472656 138.894531 143.476562 138.964844 144.472656 C 138.992188 144.976562 139.011719 145.472656 139.015625 145.972656 C 139.027344 146.464844 139.011719 146.996094 138.988281 147.453125 L 138.976562 147.800781 L 138.660156 147.890625 C 137.929688 148.101562 137.183594 148.371094 136.488281 148.695312 C 135.808594 149.019531 135.09375 149.417969 134.746094 149.929688 C 134.652344 150.054688 134.625 150.175781 134.605469 150.289062 C 134.613281 150.398438 134.613281 150.511719 134.699219 150.632812 C 134.835938 150.875 135.121094 151.109375 135.417969 151.316406 C 136.042969 151.707031 136.777344 152 137.507812 152.277344 L 137.800781 152.390625 L 137.753906 152.675781 C 137.574219 153.695312 137.304688 154.675781 136.863281 155.617188 C 136.636719 156.085938 136.363281 156.542969 135.988281 156.933594 C 135.792969 157.125 135.582031 157.304688 135.328125 157.429688 C 135.082031 157.570312 134.792969 157.632812 134.515625 157.65625 C 134.230469 157.671875 133.957031 157.609375 133.695312 157.527344 C 133.449219 157.429688 133.207031 157.320312 132.992188 157.171875 C 132.558594 156.886719 132.175781 156.546875 131.832031 156.175781 C 131.136719 155.445312 130.5625 154.617188 130.03125 153.773438 C 130.652344 154.558594 131.285156 155.324219 132.011719 155.992188 C 132.367188 156.332031 132.757812 156.628906 133.175781 156.859375 C 133.386719 156.972656 133.601562 157.058594 133.824219 157.132812 C 134.046875 157.183594 134.269531 157.207031 134.480469 157.1875 C 134.695312 157.15625 134.90625 157.105469 135.089844 156.992188 C 135.277344 156.886719 135.445312 156.734375 135.597656 156.570312 C 135.894531 156.226562 136.128906 155.808594 136.3125 155.371094 C 136.683594 154.492188 136.90625 153.523438 137.019531 152.582031 L 137.265625 152.972656 C 136.492188 152.730469 135.726562 152.429688 134.992188 151.988281 C 134.628906 151.746094 134.257812 151.480469 133.988281 151.039062 C 133.847656 150.824219 133.777344 150.527344 133.78125 150.242188 C 133.808594 149.960938 133.902344 149.6875 134.042969 149.484375 C 134.316406 149.0625 134.664062 148.785156 135.019531 148.539062 C 135.371094 148.292969 135.738281 148.09375 136.113281 147.914062 C 136.863281 147.554688 137.617188 147.261719 138.414062 147.019531 L 138.085938 147.453125 L 138.101562 145.980469 C 138.105469 145.496094 138.09375 145.007812 138.074219 144.523438 C 138.023438 143.554688 137.929688 142.59375 137.753906 141.648438 C 137.570312 140.710938 137.324219 139.777344 136.894531 138.953125 C 136.480469 138.132812 135.855469 137.433594 135.035156 137.160156 C 134.613281 137.015625 134.203125 136.996094 133.730469 137.050781 C 133.273438 137.097656 132.816406 137.253906 132.363281 137.378906 C 131.925781 137.558594 131.484375 137.734375 131.097656 138.003906 C 130.886719 138.109375 130.710938 138.273438 130.53125 138.421875 C 130.339844 138.5625 130.167969 138.726562 130.019531 138.90625 C 129.6875 139.246094 129.410156 139.640625 129.179688 140.058594 C 128.9375 140.472656 128.746094 140.917969 128.605469 141.382812 C 128.320312 142.308594 128.175781 143.292969 128.195312 144.277344 " fill-opacity="1" fill-rule="nonzero"/></g></g><g clip-path="url(#63682d423b)"><g clip-path="url(#139dc07dc2)"><path fill="#9a4f36" d="M 130.640625 147.53125 C 130.640625 147.53125 130.542969 146.738281 130.605469 145.546875 C 130.632812 144.949219 130.707031 144.25 130.871094 143.515625 C 130.953125 143.144531 131.046875 142.765625 131.191406 142.390625 C 131.308594 142.003906 131.511719 141.644531 131.6875 141.273438 C 131.902344 140.917969 132.125 140.5625 132.402344 140.253906 C 132.695312 139.960938 132.964844 139.644531 133.316406 139.445312 C 133.484375 139.328125 133.648438 139.222656 133.8125 139.113281 C 133.988281 139.039062 134.164062 138.96875 134.332031 138.894531 C 134.507812 138.828125 134.675781 138.757812 134.835938 138.695312 C 135.003906 138.664062 135.167969 138.636719 135.324219 138.601562 C 135.640625 138.554688 135.933594 138.464844 136.191406 138.46875 C 136.445312 138.46875 136.671875 138.46875 136.855469 138.46875 C 137.230469 138.46875 137.4375 138.46875 137.4375 138.46875 L 137.308594 139.550781 C 137.308594 139.550781 137.125 139.539062 136.804688 139.511719 C 136.644531 139.496094 136.449219 139.480469 136.222656 139.460938 C 135.992188 139.433594 135.75 139.496094 135.476562 139.511719 C 135.339844 139.519531 135.195312 139.539062 135.050781 139.550781 C 134.910156 139.59375 134.765625 139.640625 134.617188 139.6875 C 134.46875 139.730469 134.316406 139.777344 134.15625 139.828125 C 134.011719 139.90625 133.871094 139.984375 133.722656 140.070312 C 133.402344 140.210938 133.152344 140.46875 132.871094 140.703125 C 132.601562 140.949219 132.375 141.25 132.148438 141.558594 C 131.964844 141.882812 131.742188 142.195312 131.605469 142.554688 C 131.433594 142.894531 131.316406 143.253906 131.203125 143.597656 C 130.984375 144.296875 130.851562 144.976562 130.773438 145.558594 C 130.613281 146.734375 130.640625 147.53125 130.640625 147.53125 " fill-opacity="1" fill-rule="nonzero"/></g></g><g clip-path="url(#83522b85cb)"><g clip-path="url(#d62c4beb66)"><path fill="#f0a176" d="M 239.257812 145.1875 C 239.257812 153.867188 239.246094 163.875 236.03125 173.566406 C 228.816406 195.285156 202.296875 215.410156 188.316406 215.410156 C 174.132812 215.410156 147.367188 194.699219 140.289062 172.617188 C 137.28125 163.226562 137.375 153.585938 137.375 145.1875 C 137.375 117.058594 142.578125 80.238281 188.316406 80.238281 C 234.050781 80.238281 239.257812 117.058594 239.257812 145.1875 " fill-opacity="1" fill-rule="nonzero"/></g></g><g clip-path="url(#b616bd42e9)"><g clip-path="url(#1100840fbd)"><path fill="#d6855a" d="M 186.789062 112.71875 C 172.027344 112.71875 159.039062 107.019531 149.507812 101.15625 C 150.707031 98.636719 152.054688 96.269531 153.570312 94.128906 C 155.066406 95.507812 166.617188 105.570312 186.214844 105.570312 C 192.90625 105.570312 200.535156 104.398438 209.023438 101.308594 C 209.023438 101.308594 212.214844 100.625 216.335938 100.625 C 221.394531 100.625 227.867188 101.65625 231.566406 106.257812 C 229.84375 105.972656 227.996094 105.855469 226.125 105.855469 C 217.902344 105.855469 209.273438 108.089844 209.273438 108.089844 C 201.488281 111.382812 193.929688 112.71875 186.789062 112.71875 " fill-opacity="1" fill-rule="nonzero"/></g></g><g clip-path="url(#e2696d08c2)"><g clip-path="url(#17ce9bdb9e)"><path fill="#c3744e" d="M 188.335938 215.410156 C 188.339844 215.410156 188.339844 215.410156 188.34375 215.410156 C 188.339844 215.410156 188.339844 215.410156 188.335938 215.410156 M 188.367188 215.410156 C 188.367188 215.410156 188.371094 215.410156 188.371094 215.410156 C 188.371094 215.410156 188.367188 215.410156 188.367188 215.410156 M 188.394531 215.410156 C 188.402344 215.410156 188.402344 215.410156 188.402344 215.410156 C 188.402344 215.410156 188.402344 215.410156 188.394531 215.410156 M 188.421875 215.410156 C 188.425781 215.410156 188.425781 215.410156 188.429688 215.410156 C 188.425781 215.410156 188.425781 215.410156 188.421875 215.410156 M 188.453125 215.410156 C 188.453125 215.410156 188.457031 215.410156 188.457031 215.410156 C 188.457031 215.410156 188.453125 215.410156 188.453125 215.410156 M 188.480469 215.410156 C 188.484375 215.410156 188.484375 215.410156 188.484375 215.410156 C 188.484375 215.410156 188.484375 215.410156 188.480469 215.410156 M 188.507812 215.410156 C 188.511719 215.410156 188.511719 215.410156 188.515625 215.410156 C 188.511719 215.410156 188.511719 215.410156 188.507812 215.410156 M 188.566406 215.410156 C 188.566406 215.410156 188.570312 215.410156 188.574219 215.410156 C 188.570312 215.410156 188.566406 215.410156 188.566406 215.410156 M 188.59375 215.410156 C 188.597656 215.410156 188.597656 215.410156 188.601562 215.410156 C 188.597656 215.410156 188.597656 215.410156 188.59375 215.410156 M 188.625 215.410156 C 188.625 215.410156 188.625 215.410156 188.628906 215.410156 C 188.625 215.410156 188.625 215.410156 188.625 215.410156 M 188.652344 215.410156 C 188.652344 215.410156 188.65625 215.410156 188.65625 215.410156 C 188.65625 215.410156 188.652344 215.410156 188.652344 215.410156 M 188.710938 215.40625 C 188.710938 215.40625 188.714844 215.40625 188.714844 215.40625 C 188.714844 215.40625 188.710938 215.40625 188.710938 215.40625 M 188.738281 215.40625 C 188.738281 215.40625 188.742188 215.40625 188.742188 215.40625 C 188.742188 215.40625 188.738281 215.40625 188.738281 215.40625 M 188.796875 215.40625 C 188.796875 215.40625 188.800781 215.40625 188.800781 215.40625 C 188.796875 215.40625 188.796875 215.40625 188.796875 215.40625 M 188.882812 215.402344 C 188.882812 215.402344 188.886719 215.402344 188.886719 215.402344 C 188.886719 215.402344 188.882812 215.402344 188.882812 215.402344 M 188.941406 215.398438 L 188.945312 215.398438 L 188.941406 215.398438 M 189.085938 215.390625 L 189.089844 215.390625 L 189.085938 215.390625 M 189.117188 215.390625 L 189.121094 215.390625 C 189.117188 215.390625 189.117188 215.390625 189.117188 215.390625 " fill-opacity="1" fill-rule="nonzero"/></g></g><g clip-path="url(#255a96f392)"><g clip-path="url(#f3ca9c8627)"><path fill="#d6855a" d="M 188.316406 215.410156 C 174.132812 215.410156 147.367188 194.699219 140.289062 172.617188 C 138.285156 166.367188 137.660156 160.011719 137.464844 153.980469 C 137.441406 153.398438 137.429688 152.820312 137.417969 152.242188 C 137.390625 150.914062 137.378906 149.605469 137.375 148.320312 C 137.375 148.003906 137.375 147.6875 137.375 147.375 C 137.375 147.140625 137.375 146.910156 137.375 146.675781 C 137.375 146.175781 137.375 145.683594 137.375 145.1875 C 137.375 141.570312 137.574219 137.707031 138.007812 133.742188 C 139.398438 127.378906 143.152344 111.96875 149 100.84375 C 149.171875 100.949219 149.339844 101.054688 149.507812 101.15625 C 143.859375 113.066406 141.601562 128.507812 141.601562 140.605469 C 141.601562 149 141.507812 158.644531 144.515625 168.035156 C 151.59375 190.113281 178.359375 210.824219 192.542969 210.824219 C 201.015625 210.824219 214.101562 203.417969 224.699219 192.75 C 213.902344 205.449219 198.875 214.847656 189.175781 215.386719 C 189.15625 215.386719 189.136719 215.386719 189.121094 215.390625 L 189.117188 215.390625 C 189.109375 215.390625 189.097656 215.390625 189.089844 215.390625 L 189.085938 215.390625 C 189.070312 215.390625 189.050781 215.390625 189.03125 215.398438 C 189 215.398438 188.972656 215.398438 188.945312 215.398438 L 188.941406 215.398438 C 188.925781 215.402344 188.90625 215.402344 188.886719 215.402344 C 188.886719 215.402344 188.882812 215.402344 188.882812 215.402344 C 188.875 215.402344 188.863281 215.402344 188.855469 215.402344 C 188.847656 215.402344 188.835938 215.402344 188.828125 215.402344 C 188.816406 215.40625 188.808594 215.40625 188.800781 215.40625 C 188.800781 215.40625 188.796875 215.40625 188.796875 215.40625 C 188.789062 215.40625 188.78125 215.40625 188.769531 215.40625 C 188.761719 215.40625 188.75 215.40625 188.742188 215.40625 C 188.742188 215.40625 188.738281 215.40625 188.738281 215.40625 C 188.730469 215.40625 188.722656 215.40625 188.714844 215.40625 C 188.714844 215.40625 188.710938 215.40625 188.710938 215.40625 C 188.691406 215.40625 188.675781 215.40625 188.65625 215.410156 C 188.65625 215.410156 188.652344 215.410156 188.652344 215.410156 C 188.644531 215.410156 188.636719 215.410156 188.628906 215.410156 C 188.625 215.410156 188.625 215.410156 188.625 215.410156 C 188.617188 215.410156 188.609375 215.410156 188.601562 215.410156 C 188.597656 215.410156 188.597656 215.410156 188.59375 215.410156 C 188.589844 215.410156 188.578125 215.410156 188.574219 215.410156 C 188.570312 215.410156 188.566406 215.410156 188.566406 215.410156 C 188.558594 215.410156 188.550781 215.410156 188.542969 215.410156 C 188.53125 215.410156 188.523438 215.410156 188.515625 215.410156 C 188.511719 215.410156 188.511719 215.410156 188.507812 215.410156 C 188.503906 215.410156 188.496094 215.410156 188.484375 215.410156 C 188.484375 215.410156 188.484375 215.410156 188.480469 215.410156 C 188.472656 215.410156 188.464844 215.410156 188.457031 215.410156 C 188.457031 215.410156 188.453125 215.410156 188.453125 215.410156 C 188.441406 215.410156 188.4375 215.410156 188.429688 215.410156 C 188.425781 215.410156 188.425781 215.410156 188.421875 215.410156 C 188.414062 215.410156 188.410156 215.410156 188.402344 215.410156 C 188.402344 215.410156 188.402344 215.410156 188.394531 215.410156 C 188.386719 215.410156 188.378906 215.410156 188.371094 215.410156 C 188.371094 215.410156 188.367188 215.410156 188.367188 215.410156 C 188.359375 215.410156 188.355469 215.410156 188.34375 215.410156 C 188.339844 215.410156 188.339844 215.410156 188.335938 215.410156 C 188.328125 215.410156 188.320312 215.410156 188.316406 215.410156 " fill-opacity="1" fill-rule="nonzero"/></g></g><g clip-path="url(#1b8f2171d2)"><g clip-path="url(#c87ba19032)"><path fill="#cf7d53" d="M 149.507812 101.15625 C 149.339844 101.054688 149.171875 100.949219 149 100.84375 C 150.355469 98.269531 151.828125 95.921875 153.402344 93.96875 C 153.402344 93.96875 153.457031 94.023438 153.570312 94.128906 C 152.054688 96.269531 150.707031 98.636719 149.507812 101.15625 " fill-opacity="1" fill-rule="nonzero"/></g></g><g clip-path="url(#3b671ef25f)"><g clip-path="url(#698ce8c090)"><path fill="#211a1b" d="M 149.601562 127.492188 C 149.601562 127.492188 155.417969 122.316406 161.027344 123.59375 C 166.632812 124.867188 175.347656 124.859375 177.902344 122.015625 C 177.902344 122.015625 158.917969 114.394531 149.601562 127.492188 " fill-opacity="1" fill-rule="nonzero"/></g></g><g clip-path="url(#88dc0aebd2)"><g clip-path="url(#dc5e9b552e)"><path fill="#211a1b" d="M 225.355469 127.492188 C 225.355469 127.492188 219.539062 122.316406 213.929688 123.59375 C 208.324219 124.867188 199.609375 124.859375 197.054688 122.015625 C 197.054688 122.015625 216.042969 114.394531 225.355469 127.492188 " fill-opacity="1" fill-rule="nonzero"/></g></g><g clip-path="url(#88329c818c)"><g clip-path="url(#7d45b8bb90)"><path fill="#b05838" d="M 179.238281 167.800781 C 179.238281 167.800781 179.226562 167.703125 179.203125 167.519531 C 179.171875 167.335938 179.132812 167.070312 179.171875 166.699219 C 179.203125 166.335938 179.265625 165.890625 179.449219 165.417969 C 179.605469 164.929688 179.875 164.414062 180.238281 163.886719 C 180.59375 163.367188 181.046875 162.839844 181.601562 162.375 C 182.144531 161.890625 182.785156 161.457031 183.496094 161.09375 C 184.207031 160.746094 184.972656 160.410156 185.789062 160.234375 C 186.625 160.011719 187.414062 159.949219 188.363281 159.917969 C 188.761719 159.949219 189.105469 159.933594 189.554688 160 C 190.003906 160.050781 190.4375 160.121094 190.835938 160.230469 C 191.660156 160.40625 192.421875 160.746094 193.132812 161.089844 C 193.839844 161.453125 194.484375 161.886719 195.027344 162.371094 C 195.585938 162.835938 196.035156 163.367188 196.394531 163.886719 C 196.757812 164.414062 197.019531 164.929688 197.183594 165.414062 C 197.367188 165.890625 197.429688 166.339844 197.460938 166.691406 C 197.492188 167.054688 197.460938 167.332031 197.425781 167.519531 C 197.402344 167.703125 197.386719 167.800781 197.386719 167.800781 C 197.386719 167.800781 197.359375 167.707031 197.308594 167.527344 C 197.273438 167.347656 197.171875 167.101562 197.039062 166.796875 C 196.902344 166.5 196.703125 166.15625 196.441406 165.796875 C 196.183594 165.433594 195.832031 165.074219 195.449219 164.703125 C 195.042969 164.34375 194.574219 164 194.054688 163.679688 C 193.539062 163.351562 192.945312 163.097656 192.335938 162.835938 C 191.722656 162.601562 191.0625 162.417969 190.386719 162.296875 C 190.042969 162.21875 189.71875 162.191406 189.394531 162.15625 C 189.082031 162.101562 188.640625 162.117188 188.269531 162.09375 C 187.664062 162.117188 186.898438 162.15625 186.242188 162.296875 C 185.5625 162.417969 184.90625 162.597656 184.289062 162.835938 C 183.683594 163.097656 183.085938 163.347656 182.570312 163.679688 C 182.050781 164 181.582031 164.34375 181.183594 164.703125 C 180.796875 165.074219 180.441406 165.429688 180.1875 165.796875 C 179.921875 166.152344 179.726562 166.503906 179.59375 166.792969 C 179.457031 167.085938 179.359375 167.34375 179.320312 167.527344 C 179.269531 167.707031 179.238281 167.800781 179.238281 167.800781 " fill-opacity="1" fill-rule="nonzero"/></g></g><g clip-path="url(#0308b4143b)"><g clip-path="url(#1f784114a8)"><path fill="#ffffff" d="M 167.554688 176.574219 C 167.554688 176.574219 183.824219 185.84375 209.273438 176.574219 C 209.273438 176.574219 189.179688 206.023438 167.554688 176.574219 " fill-opacity="1" fill-rule="nonzero"/></g></g><g clip-path="url(#477eb23ea0)"><g clip-path="url(#49cd7ba61d)"><path fill="#c7d3df" d="M 167.554688 176.574219 C 167.808594 176.914062 168.054688 177.242188 168.3125 177.566406 C 174.027344 181.796875 188.042969 189.253906 208.328125 177.824219 C 209.128906 176.84375 209.273438 176.574219 209.273438 176.574219 C 183.824219 185.84375 167.554688 176.574219 167.554688 176.574219 " fill-opacity="1" fill-rule="nonzero"/></g></g><g clip-path="url(#ff6afc9ebd)"><g clip-path="url(#b7887edc6b)"><path fill="#ad6544" d="M 182.414062 194.707031 C 182.414062 194.707031 188.414062 197.570312 194.414062 194.707031 C 194.414062 194.707031 189.21875 204.015625 182.414062 194.707031 " fill-opacity="1" fill-rule="nonzero"/></g></g><g clip-path="url(#37eb7ea3b4)"><g clip-path="url(#e15e9c0a8a)"><path fill="#d6855a" d="M 188.535156 171.179688 C 183.160156 171.179688 179.238281 168.9375 179.238281 168.9375 C 180.808594 163.460938 186.394531 163.0625 187.988281 163.0625 C 188.261719 163.0625 188.414062 163.074219 188.414062 163.074219 C 188.519531 163.070312 188.621094 163.070312 188.722656 163.070312 C 195.128906 163.070312 197.386719 168.9375 197.386719 168.9375 C 194.277344 170.621094 191.226562 171.179688 188.535156 171.179688 " fill-opacity="1" fill-rule="nonzero"/></g></g><g clip-path="url(#eed9d05e7a)"><g clip-path="url(#e14a1511c5)"><path fill="#211a1b" d="M 173.25 183.0625 C 172.117188 181.320312 171.1875 179.449219 170.496094 177.875 C 168.570312 177.152344 167.554688 176.574219 167.554688 176.574219 C 169.46875 179.179688 171.371094 181.320312 173.25 183.0625 " fill-opacity="1" fill-rule="nonzero"/></g></g><g clip-path="url(#2378659b94)"><g clip-path="url(#c7935ad354)"><path fill="#211a1b" d="M 203.355469 183.035156 C 207.074219 179.789062 209.273438 176.574219 209.273438 176.574219 C 208.390625 176.890625 207.527344 177.1875 206.671875 177.464844 C 205.851562 179.117188 204.71875 181.171875 203.355469 183.035156 " fill-opacity="1" fill-rule="nonzero"/></g></g><g clip-path="url(#164bca014c)"><g clip-path="url(#7ea871444f)"><path fill="#211a1b" d="M 137.398438 136.675781 C 137.398438 136.675781 143.039062 106.785156 153.402344 93.96875 C 153.402344 93.96875 173.832031 114.125 209.023438 101.308594 C 209.023438 101.308594 226.53125 97.554688 232.527344 107.640625 C 232.527344 107.640625 236.84375 136.675781 238.886719 136.769531 C 238.886719 136.769531 257.277344 110.875 252.28125 75.425781 C 252.28125 75.425781 239.671875 76.59375 227.671875 68.785156 C 227.671875 68.785156 199.039062 35.34375 153.5 59.609375 C 153.5 59.609375 152.039062 52.222656 154.765625 42.953125 C 154.765625 42.953125 146.859375 55.496094 147.402344 64.222656 C 147.402344 64.222656 139.410156 62.859375 133.316406 64.492188 C 133.316406 64.492188 141.464844 65.859375 144.296875 67.765625 C 144.296875 67.765625 119.761719 78.824219 137.398438 136.675781 " fill-opacity="1" fill-rule="nonzero"/></g></g><g clip-path="url(#facb708d96)"><g clip-path="url(#df6675a035)"><path fill="#4a3835" d="M 193.996094 93.164062 C 186.644531 93.164062 178.277344 91.53125 169.089844 87.109375 C 159.671875 82.578125 151.941406 80.921875 145.667969 80.921875 C 140.597656 80.921875 136.480469 82.003906 133.195312 83.527344 C 134.878906 77.976562 137.261719 74.246094 139.394531 71.808594 C 141.441406 71.496094 143.941406 71.25 146.78125 71.25 C 153.972656 71.25 163.367188 72.8125 173.25 78.699219 C 183.355469 84.71875 193.503906 87.113281 202.628906 87.113281 C 212.515625 87.109375 221.199219 84.296875 227.300781 80.238281 C 227.300781 80.238281 214.691406 93.164062 193.996094 93.164062 " fill-opacity="1" fill-rule="nonzero"/></g></g><g clip-path="url(#6eb11a5be9)"><g clip-path="url(#b1c60f1b57)"><path fill="#337393" d="M 245.328125 392.308594 C 246.011719 387.351562 246.722656 382.152344 247.449219 376.777344 C 167.496094 398.421875 124.550781 349.234375 124.546875 349.226562 C 126.539062 364.34375 128.550781 379.207031 130.347656 392.308594 L 245.328125 392.308594 " fill-opacity="1" fill-rule="nonzero"/></g></g><g clip-path="url(#c59cf6384f)"><g clip-path="url(#7503845f8e)"><path fill="#211a1b" d="M 174.777344 147.726562 C 174.777344 152.140625 172.796875 155.726562 170.359375 155.726562 C 167.917969 155.726562 165.941406 152.140625 165.941406 147.726562 C 165.941406 143.308594 167.917969 139.726562 170.359375 139.726562 C 172.796875 139.726562 174.777344 143.308594 174.777344 147.726562 " fill-opacity="1" fill-rule="nonzero"/></g></g><g clip-path="url(#92336e6ed6)"><g clip-path="url(#e7032b1b67)"><path fill="#211a1b" d="M 210.6875 147.726562 C 210.6875 152.140625 208.710938 155.726562 206.269531 155.726562 C 203.828125 155.726562 201.851562 152.140625 201.851562 147.726562 C 201.851562 143.308594 203.828125 139.726562 206.269531 139.726562 C 208.710938 139.726562 210.6875 143.308594 210.6875 147.726562 " fill-opacity="1" fill-rule="nonzero"/></g></g></svg>